<?xml version="1.0" encoding="UTF-8"?>
<svg version="1.1" xmlns="http://www.w3.org/2000/svg" width="1464" height="1189">
<path d="M0 0 C4.72935774 0.01509616 9.45838068 0.00963572 14.1877262 -0.00720823 C70.59324295 -0.20309226 70.59324295 -0.20309226 93.11478919 3.98214114 C96.36958679 4.57880955 99.63231167 5.09176643 102.90256995 5.59655154 C137.40734753 10.97027375 171.19918421 20.73664411 204.01756018 32.51427615 C205.0636344 32.88649294 206.10970862 33.25870974 207.18748206 33.64220583 C238.70098649 44.94337678 269.15806587 59.60490457 298.01756018 76.51427615 C299.29856604 77.25629275 299.29856604 77.25629275 300.60545081 78.01329958 C326.26476647 92.89013752 350.45777384 110.17770822 373.28953284 129.09044802 C374.84842459 130.37491491 376.42236457 131.64106551 377.99802893 132.90490115 C383.62778419 137.42170335 388.99044561 142.15554313 394.25266761 147.09069216 C396.99403135 149.66107688 399.76877857 152.16388549 402.62693518 154.6041199 C407.96250839 159.25006119 412.9274125 164.27458379 417.91770667 169.28405154 C419.57683338 170.94853892 421.2412407 172.60761061 422.90623206 174.26622927 C428.48747474 179.84398107 433.90343 185.50076136 439.01756018 191.51427615 C440.47201535 193.12195987 441.92976913 194.72667329 443.39256018 196.32677615 C448.12332111 201.57608591 452.5875307 207.0105156 457.01756018 212.51427615 C457.94294426 213.64741312 458.86874412 214.78021063 459.79490393 215.91271365 C486.70673167 248.97811957 509.06925164 285.39558688 528.01756018 323.51427615 C528.51981116 324.51233279 529.02206214 325.51038943 529.53953284 326.53869021 C562.15316819 391.49963657 580.55218294 464.21084504 586.01756018 536.51427615 C586.11182288 537.6528406 586.20608557 538.79140505 586.30320472 539.96447146 C592.8709608 628.48231468 578.99798848 719.81992732 511.01756018 871.51427615 C510.59313636 872.25983767 510.16871253 873.00539919 509.73142737 873.77355349 C494.26546797 900.80583249 476.95914471 926.71680438 456.67771643 950.38146365 C454.187722 953.29408416 451.78791039 956.27321276 449.39256018 959.26427615 C445.9481414 963.50214139 442.29988396 967.37849154 438.35349768 971.1509949 C436.5128226 973.01321635 434.8377592 974.88246675 433.14646643 976.87365115 C427.91038327 982.90875611 422.19468459 988.48597597 416.53880042 994.12340701 C414.58460395 996.07224484 412.63580871 998.02636887 410.68748206 999.98107302 C404.63194463 1006.03984884 398.55846501 1011.97551819 392.01756018 1017.51427615 C390.24185798 1019.13395431 388.47047711 1020.75839333 386.70506018 1022.38927615 C382.27124707 1026.42829768 377.73701435 1030.28934493 373.06834143 1034.05333865 C370.84467345 1035.84707851 368.6355754 1037.65299998 366.43552893 1039.47521365 C339.73330354 1061.51987721 310.79708682 1080.87947991 280.29978675 1097.28283083 C277.97661289 1098.53637051 275.66540291 1099.81040817 273.35349768 1101.08458865 C202.70766207 1139.53640069 121.81691924 1158.73559328 42.01756018 1164.51427615 C41.29117347 1164.57212283 40.56478675 1164.62996951 39.81638831 1164.68956912 C-32.4918519 1170.36708005 -107.1526296 1159.572326 -175.98243982 1137.51427615 C-177.08507165 1137.16139529 -178.18770349 1136.80851443 -179.32374841 1136.44494021 C-207.8924743 1127.18523839 -235.16770784 1114.95136198 -261.98243982 1101.51427615 C-263.14291833 1100.93532595 -264.30339685 1100.35637576 -265.49904138 1099.75988162 C-320.54457724 1072.17552427 -367.95226599 1034.95592952 -411.0844906 991.37560427 C-418.04834776 984.31284161 -418.04834776 984.31284161 -425.40822107 977.67052615 C-429.35368267 974.3134731 -432.51838766 970.49972433 -435.73243982 966.45177615 C-436.94990123 964.94422419 -438.16867264 963.4377293 -439.38868982 961.9322449 C-439.990682 961.18765017 -440.59267419 960.44305544 -441.21290857 959.67589724 C-443.82497018 956.48505928 -446.52657816 953.37551034 -449.23243982 950.26427615 C-454.74832973 943.8755104 -459.95527606 937.29442784 -464.98243982 930.51427615 C-465.48388513 929.8388074 -465.98533044 929.16333865 -466.50197107 928.46740115 C-502.43290371 879.86010541 -529.63468814 825.6769333 -548.98243982 768.51427615 C-549.33644861 767.47674197 -549.69045739 766.43920779 -550.05519372 765.37023318 C-577.18093741 685.31683004 -585.85770149 598.43852938 -575.98243982 514.51427615 C-575.89758325 513.78732546 -575.81272668 513.06037478 -575.7252987 512.31139529 C-567.61271463 443.65109471 -546.92729459 378.26034842 -515.98243982 316.51427615 C-515.4721322 315.49108279 -514.96182458 314.46788943 -514.4360531 313.41369021 C-495.09066575 274.82496833 -470.69077572 238.59957933 -442.98243982 205.51427615 C-442.56284997 205.00976931 -442.14326013 204.50526248 -441.71095544 203.98546755 C-435.4681359 196.4826921 -429.04145164 189.18898942 -422.39601403 182.04113162 C-420.94915224 180.47832097 -419.5134967 178.90584266 -418.08009607 177.3306824 C-409.20670704 167.60084517 -400.18038835 157.90708827 -390.12697107 149.3775574 C-387.82045869 147.37353845 -385.58985987 145.3014319 -383.35768396 143.21544802 C-377.1033494 137.37457085 -370.69130281 131.83351183 -363.98243982 126.51427615 C-362.93942245 125.6783993 -361.89645569 124.84245931 -360.85353357 124.00646365 C-287.0665743 65.1530974 -198.70777668 26.76746064 -100.41993982 7.13927615 C-99.30747888 6.92472781 -98.19501794 6.71017947 -97.04884607 6.48912966 C-93.85070321 5.91055407 -90.64789548 5.39397118 -87.43498498 4.90477908 C-85.70329708 4.62905359 -83.97491599 4.33215978 -82.24937707 4.02025759 C-55.05668451 -0.84643124 -27.52283683 -0.09810478 0 0 Z " fill="#1876F1" transform="translate(727.9824398159981,-0.5142761468887329)"/>
<path d="M0 0 C1.54467174 0.04456459 3.08967685 0.07808301 4.63476562 0.10449219 C30.66462181 0.55942841 56.63068441 3.73785372 82.42114258 7.12133789 C90.31812466 8.13861751 98.19462959 8.72276356 106.14941406 9.06201172 C106.14941406 9.72201172 106.14941406 10.38201172 106.14941406 11.06201172 C110.76941406 11.06201172 115.38941406 11.06201172 120.14941406 11.06201172 C120.14941406 58.25201172 120.14941406 105.44201172 120.14941406 154.06201172 C97.70941406 154.39201172 75.26941406 154.72201172 52.14941406 155.06201172 C38.46183794 155.86708235 38.46183794 155.86708235 25.02441406 157.81201172 C24.08847412 157.98829102 23.15253418 158.16457031 22.18823242 158.34619141 C4.438727 161.85355122 -12.12864559 168.95728733 -24.85058594 182.06201172 C-25.56859375 182.77099609 -26.28660156 183.47998047 -27.02636719 184.21044922 C-41.57136595 199.38545734 -44.53717171 221.03674783 -46.85058594 241.06201172 C-46.93143275 241.67331405 -47.01227957 242.28461637 -47.09557629 242.91444302 C-47.84213471 248.9007017 -47.9866878 254.78648957 -47.96411133 260.81420898 C-47.96423186 261.86598548 -47.9643524 262.91776197 -47.96447659 264.00141048 C-47.9637353 267.37710181 -47.95614306 270.75273663 -47.94824219 274.12841797 C-47.94677034 276.22408013 -47.94575112 278.31974267 -47.94519043 280.41540527 C-47.93996573 288.15177973 -47.92600446 295.88814629 -47.91308594 303.62451172 C-47.88214844 329.58107422 -47.88214844 329.58107422 -47.85058594 356.06201172 C5.27941406 356.06201172 58.40941406 356.06201172 113.14941406 356.06201172 C112.03048194 371.72706148 112.03048194 371.72706148 110.74316406 377.93310547 C110.47286915 379.28539603 110.20470113 380.63811316 109.93847656 381.99121094 C109.80538086 382.66432312 109.67228516 383.3374353 109.53515625 384.03094482 C108.39566241 390.03077654 107.55073974 396.08530848 106.64941406 402.12451172 C106.43148553 403.56909295 106.21354921 405.01367301 105.99560547 406.45825195 C104.59820905 415.7746841 103.34075206 425.10282181 102.1706543 434.45068359 C101.51914222 439.55227642 100.7201011 444.57818516 99.71191406 449.62451172 C98.1681737 457.39170801 97.16181602 465.21022966 96.14941406 473.06201172 C94.80278131 483.49071915 93.17809973 493.74217592 91.14941406 504.06201172 C89.66441406 513.46701172 89.66441406 513.46701172 88.14941406 523.06201172 C43.26941406 523.06201172 -1.61058594 523.06201172 -47.85058594 523.06201172 C-47.85058594 657.70201172 -47.85058594 792.34201172 -47.85058594 931.06201172 C-49.50058594 931.06201172 -51.15058594 931.06201172 -52.85058594 931.06201172 C-52.85058594 931.72201172 -52.85058594 932.38201172 -52.85058594 933.06201172 C-110.8423317 940.25340691 -166.85884018 940.25340691 -224.85058594 933.06201172 C-224.85058594 932.40201172 -224.85058594 931.74201172 -224.85058594 931.06201172 C-226.50058594 931.06201172 -228.15058594 931.06201172 -229.85058594 931.06201172 C-229.85058594 796.75201172 -229.85058594 662.44201172 -229.85058594 524.06201172 C-278.69058594 524.06201172 -327.53058594 524.06201172 -377.85058594 524.06201172 C-377.85058594 468.29201172 -377.85058594 412.52201172 -377.85058594 355.06201172 C-329.01058594 355.06201172 -280.17058594 355.06201172 -229.85058594 355.06201172 C-230.18058594 339.22201172 -230.51058594 323.38201172 -230.85058594 307.06201172 C-230.93082474 294.95539182 -230.99554695 282.85374164 -230.97753906 270.74761963 C-230.97489735 267.62239038 -230.97984592 264.49718821 -230.98438358 261.37196255 C-231.05124055 207.42995571 -231.05124055 207.42995571 -228.16308594 185.24951172 C-228.07788696 184.575755 -227.99268799 183.90199829 -227.90490723 183.20782471 C-220.92982594 128.5802707 -196.58289396 77.15840194 -152.62744141 42.83398438 C-129.27430667 25.29506785 -102.14706346 13.72444054 -73.85058594 7.06201172 C-72.80257812 6.81330322 -72.80257812 6.81330322 -71.73339844 6.55957031 C-67.78718942 5.63740149 -63.83524136 4.79957773 -59.85058594 4.06201172 C-59.02679443 3.90297363 -58.20300293 3.74393555 -57.35424805 3.58007812 C-48.82187195 2.02768873 -40.30544051 1.41410597 -31.66308594 0.93701172 C-30.56468384 0.87397354 -30.56468384 0.87397354 -29.4440918 0.80966187 C-19.62992747 0.24884865 -9.8339055 -0.29293515 0 0 Z " fill="#FEFEFE" transform="translate(870.8505859375,225.93798828125)"/>
<path d="M0 0 C0.99 0.495 0.99 0.495 2 1 C-11.17655206 12.36838287 -11.17655206 12.36838287 -17.75 17.6875 C-27.3690068 25.51569146 -27.3690068 25.51569146 -35.95703125 34.42578125 C-40.90551094 40.1510029 -46.27571558 45.46174295 -51.62426758 50.80957031 C-53.43536308 52.6228605 -55.23828584 54.44402231 -57.04101562 56.265625 C-62.73996704 61.9913431 -68.31436813 67.41035928 -75 72 C-73.37915347 68.55598213 -71.57463755 66.39328482 -68.8125 63.75 C-66.03885735 61.04208348 -63.36894585 58.3418239 -60.875 55.375 C-53.33967426 46.60437496 -44.91077845 38.24941501 -36.07421875 30.79296875 C-33.78871139 28.8173607 -31.58561132 26.76730207 -29.37866211 24.70483398 C-23.12459355 18.86246678 -16.70038796 13.33074984 -10 8 C-8.56140625 6.84564453 -8.56140625 6.84564453 -7.09375 5.66796875 C-4.73254157 3.77435918 -2.3679757 1.88513467 0 0 Z " fill="#092F61" transform="translate(374,118)"/>
</svg>
