<?xml version="1.0" encoding="UTF-8"?>
<svg version="1.1" xmlns="http://www.w3.org/2000/svg" width="512" height="384">
<path d="M0 0 C4.38415578 2.83412846 8.48040244 6.0080556 12.59399414 9.21728516 C14.4458708 10.64565025 16.29875583 12.07270883 18.15258789 13.49853516 C19.07539551 14.20880859 19.99820313 14.91908203 20.94897461 15.65087891 C24.97910108 18.72671213 29.06399003 21.72523197 33.15649414 24.71728516 C40.78442225 30.30317246 48.3129569 36.01006164 55.82055664 41.75634766 C61.55552141 46.13792841 67.33408977 50.45271473 73.15649414 54.71728516 C80.78389431 60.30390936 88.31293979 66.01004854 95.82055664 71.75634766 C101.55552141 76.13792841 107.33408977 80.45271473 113.15649414 84.71728516 C119.88146779 89.64293475 126.5369203 94.65090063 133.15649414 99.71728516 C146.50173746 109.92783909 160.0483662 119.8607333 173.65649414 129.71728516 C179.68217532 125.81614424 185.41097461 121.67874397 191.03149414 117.21728516 C197.26752143 112.31629286 203.56639443 107.5235258 209.96899414 102.84228516 C216.75812317 97.87674613 223.47797386 92.8306327 230.15649414 87.71728516 C237.54281423 82.06362554 244.98844146 76.50258126 252.49243164 71.00634766 C259.32878139 65.98696794 266.06867659 60.84650195 272.80297852 55.69140625 C279.49475302 50.57832503 286.25646872 45.56786264 293.04833984 40.58886719 C297.51984621 37.30608459 301.95795778 33.98841272 306.34399414 30.59228516 C312.99157566 25.4452296 319.70591956 20.39246172 326.44848633 15.37060547 C328.800178 13.60969702 331.13852126 11.83188649 333.47680664 10.05322266 C351.0248164 -3.20944425 365.22045527 -10.05491381 387.65649414 -8.28271484 C403.10563557 -5.40236644 415.06589006 4.47711647 423.79711914 17.06884766 C429.100967 26.47258672 430.24412114 36.62833024 430.16442871 47.21661377 C430.17066867 48.51177375 430.17690864 49.80693372 430.18333769 51.14134097 C430.19987879 54.69763596 430.19185524 58.25349599 430.17939281 61.80979156 C430.17028184 65.65983374 430.18434155 69.50980503 430.1953125 73.35983276 C430.21303623 80.88563508 430.20928589 88.41127723 430.19766194 95.93708566 C430.18860626 102.054656 430.18741281 108.17218164 430.1917572 114.28975677 C430.19237013 115.16241105 430.19298307 116.03506533 430.19361457 116.93416367 C430.19489354 118.70722416 430.19619039 120.48028464 430.19750494 122.2533451 C430.20889202 138.85149373 430.19582507 155.44955376 430.17430347 172.04768786 C430.1564216 186.27939477 430.15954919 200.5109712 430.17797852 214.74267578 C430.19939665 231.29006876 430.20780678 247.83738432 430.19552946 264.38478923 C430.19425532 266.14988501 430.19299784 267.9149808 430.1917572 269.6800766 C430.1911401 270.54843419 430.190523 271.41679179 430.1898872 272.31146325 C430.18643807 278.42137828 430.19225294 284.53124404 430.20167542 290.64115143 C430.21290671 298.08719636 430.2098311 305.53307267 430.18855244 312.97909835 C430.17805911 316.77574761 430.17389081 320.57211596 430.18714905 324.36876297 C430.2013163 328.48804897 430.18437102 332.60662912 430.16442871 336.72589111 C430.1733516 337.92034765 430.18227448 339.11480418 430.19146776 340.34545636 C430.0934966 350.77708432 426.92608698 359.1074135 419.65649414 366.71728516 C390.48803861 390.85014413 348.83277186 375.71728516 312.65649414 375.71728516 C312.32649414 311.36728516 311.99649414 247.01728516 311.65649414 180.71728516 C296.8268689 191.61718455 296.8268689 191.61718455 282.15649414 202.71728516 C274.77152618 208.37268813 267.32451159 213.93201485 259.82055664 219.42822266 C253.87977981 223.79005548 248.00896154 228.23783064 242.15649414 232.71728516 C235.53702132 237.78380248 228.88139956 242.7915468 222.15649414 247.71728516 C215.37186926 252.68788865 208.65331888 257.7376165 201.96899414 262.84228516 C201.0937207 263.50800537 200.21844727 264.17372559 199.31665039 264.85961914 C195.16777649 268.01824442 191.03869732 271.19658602 186.94946289 274.43212891 C186.22138428 274.9997998 185.49330566 275.5674707 184.74316406 276.15234375 C183.39119499 277.20677523 182.04821118 278.27287171 180.71630859 279.35253906 C176.30324005 282.76607407 176.30324005 282.76607407 173.22924805 282.53417969 C170.36347733 281.62424717 168.6021689 280.46685947 166.24243164 278.61181641 C165.40905273 277.96535156 164.57567383 277.31888672 163.71704102 276.65283203 C162.83081055 275.95222656 161.94458008 275.25162109 161.03149414 274.52978516 C159.1340988 273.05578642 157.23564026 271.58315536 155.33618164 270.11181641 C154.38195312 269.37012207 153.42772461 268.62842773 152.44458008 267.86425781 C148.39739234 264.74771062 144.28235725 261.72843986 140.15649414 258.71728516 C132.52806427 253.13209917 125.00001483 247.424496 117.49243164 241.67822266 C111.75746687 237.2966419 105.97889851 232.98185558 100.15649414 228.71728516 C93.43152003 223.79163522 86.7760861 218.78364625 80.15649414 213.71728516 C70.41118595 206.26155895 60.55731409 198.96468536 50.65649414 191.71728516 C45.70649414 188.08728516 40.75649414 184.45728516 35.65649414 180.71728516 C35.32649414 245.06728516 34.99649414 309.41728516 34.65649414 375.71728516 C-62.87542075 375.71728516 -62.87542075 375.71728516 -73.34350586 365.71728516 C-81.08469316 356.36081074 -82.64165935 349.0237828 -82.6109314 337.08665466 C-82.61546251 335.80029792 -82.61999362 334.51394118 -82.62466204 333.18860394 C-82.63688212 329.6243348 -82.63663274 326.06015959 -82.63427329 322.49587429 C-82.63386486 318.64905472 -82.64490701 314.80226515 -82.65438843 310.95545959 C-82.6709954 303.42004927 -82.67649789 295.88467025 -82.67761318 288.34924316 C-82.67856407 282.22106036 -82.68267643 276.09288787 -82.68901443 269.96470833 C-82.70662824 252.57934663 -82.71585342 235.19400961 -82.71435349 217.80863892 C-82.71427357 216.87155614 -82.71419366 215.93447337 -82.71411133 214.96899414 C-82.71402957 214.03076292 -82.71394781 213.09253169 -82.71386357 212.12586922 C-82.71305127 196.93218666 -82.73217446 181.73860338 -82.76038806 166.54494952 C-82.7891478 150.93356842 -82.80292657 135.32223567 -82.80120051 119.71082741 C-82.80053754 110.95060762 -82.80598876 102.19049182 -82.82755661 93.43029594 C-82.84580939 85.96884112 -82.85008245 78.50753739 -82.83653776 71.04606985 C-82.83002788 67.24288642 -82.82981847 63.43999252 -82.84724426 59.63683701 C-82.86598807 55.50327494 -82.85336852 51.37037707 -82.83798218 47.23680115 C-82.8482693 46.04922114 -82.85855643 44.86164114 -82.86915529 43.63807386 C-82.75515029 29.71917314 -78.48786225 17.69238066 -69.15991211 7.27978516 C-50.0867061 -11.26099967 -22.35083363 -13.60990204 0 0 Z " fill="#E94334" transform="translate(82.343505859375,8.28271484375)"/>
<path d="M0 0 C1.41472919 0.9324949 2.8280194 1.86717309 4.24072266 2.80273438 C5.42149887 3.58312073 5.42149887 3.58312073 6.62612915 4.37927246 C10.34358753 6.91731583 13.85100822 9.70272404 17.375 12.5 C23.61102729 17.4009923 29.90990029 22.19375935 36.3125 26.875 C43.10162903 31.84053902 49.82147972 36.88665246 56.5 42 C63.11938645 47.06663093 69.7751389 52.07420459 76.5 57 C112.04717726 83.04717726 112.04717726 83.04717726 117 88 C117.09775474 90.54196189 117.12995277 93.05672961 117.12025452 95.59913635 C117.12110894 96.40445059 117.12196337 97.20976483 117.12284368 98.03948253 C117.12450095 100.75884703 117.11897311 103.47815088 117.11352539 106.19750977 C117.11324355 108.13851927 117.1134012 110.07952889 117.1139679 112.02053833 C117.11425598 117.30750984 117.10835756 122.59445888 117.10139394 127.88142514 C117.09516214 133.40011053 117.09455674 138.91879638 117.09336853 144.43748474 C117.0902547 154.89579158 117.08204061 165.35408802 117.07201904 175.81239027 C117.06085951 187.71545041 117.05534786 199.61851103 117.05032361 211.52157509 C117.03985804 236.01438917 117.0222576 260.507194 117 285 C105.29057839 285.0928588 93.58124502 285.16384566 81.87152958 285.20724869 C76.4336702 285.22808459 70.99606356 285.25632928 65.55834961 285.30175781 C60.30636055 285.34535798 55.05461394 285.36916715 49.80245781 285.37950897 C47.80306624 285.38687492 45.80368729 285.4012588 43.80439949 285.42292023 C40.99439393 285.4521426 38.18537825 285.45594816 35.37524414 285.45410156 C34.55668442 285.46848267 33.73812469 285.48286377 32.89476013 285.49768066 C23.72006454 285.43284183 15.59402907 281.29917411 9 275 C1.87348991 266.38646221 -0.30538774 259.47423668 -0.24050903 248.4458313 C-0.24221788 247.38306469 -0.24392673 246.32029808 -0.24568737 245.22532642 C-0.24898128 241.66463467 -0.23797999 238.10413142 -0.22705078 234.54345703 C-0.22648665 231.99088038 -0.22680327 229.4383034 -0.22793579 226.88572693 C-0.22839121 221.39041878 -0.22271881 215.89517131 -0.21146011 210.39987564 C-0.19519265 202.45465465 -0.18999583 194.50945661 -0.18748413 186.56422077 C-0.18310898 173.67300915 -0.16980477 160.78182287 -0.15087891 147.890625 C-0.13251544 135.36946743 -0.11836122 122.84831675 -0.10986328 110.32714844 C-0.10933783 109.55509292 -0.10881239 108.78303741 -0.10827102 107.98758627 C-0.10566091 104.11433567 -0.1031335 100.24108502 -0.10064721 96.36783433 C-0.07992033 64.24520447 -0.0446997 32.12260576 0 0 Z " fill="#4284F3" transform="translate(0,99)"/>
<path d="M0 0 C0.0915923 32.84185153 0.16205737 65.68366989 0.20426132 98.52562004 C0.20926403 102.40453141 0.21444133 106.28344252 0.21972656 110.16235352 C0.2207758 110.93456195 0.22182505 111.70677038 0.22290608 112.50237907 C0.24030258 124.99936703 0.27183609 137.49628126 0.30861118 149.99322551 C0.34604166 162.82003512 0.3682403 175.64680617 0.37635398 188.47366816 C0.3818374 196.38602664 0.39914469 204.29817668 0.43166587 212.21047098 C0.45534598 218.2817087 0.45781453 224.3527678 0.45243073 230.42405701 C0.45353065 232.91169072 0.46148036 235.39933237 0.4768219 237.88691902 C0.49675907 241.28659081 0.49192467 244.68537489 0.48101807 248.08506775 C0.49266943 249.06660778 0.5043208 250.04814782 0.51632524 251.05943149 C0.43224842 260.77299056 -3.28001367 268.96546112 -10 276 C-18.02362863 282.63844193 -24.70361836 285.31662255 -35.03466797 285.22705078 C-35.92311905 285.22734283 -36.81157013 285.22763489 -37.72694397 285.22793579 C-40.64879291 285.22654808 -43.57038338 285.21101317 -46.4921875 285.1953125 C-48.52385316 285.19158039 -50.55552062 285.18873435 -52.58718872 285.18673706 C-57.92355353 285.17911624 -63.25980874 285.15948104 -68.59613037 285.1373291 C-74.04584267 285.11683727 -79.49557275 285.10772821 -84.9453125 285.09765625 C-95.63025637 285.07623371 -106.31511906 285.04211647 -117 285 C-117.18687133 259.4354323 -117.32795044 233.87096694 -117.41449738 208.30585384 C-117.45575062 196.43552254 -117.51199442 184.56561558 -117.60351562 172.69555664 C-117.68324652 162.34973877 -117.73486421 152.00422819 -117.75270796 141.65811163 C-117.76313891 136.17958986 -117.78765624 130.70194722 -117.84584045 125.2237072 C-117.90017164 120.06642367 -117.91688674 114.91038067 -117.90486145 109.75283813 C-117.90706106 107.86095498 -117.92295869 105.96903006 -117.9536438 104.07739449 C-118.17381898 89.80328424 -118.17381898 89.80328424 -115.30557251 85.39692879 C-113.28099712 83.58640474 -111.36904925 82.31184018 -109 81 C-107.58882368 79.95405864 -106.18765456 78.89436467 -104.80078125 77.81640625 C-103.30695226 76.72865377 -101.81075483 75.64414826 -100.3125 74.5625 C-93.30999333 69.45719695 -86.37894956 64.27056895 -79.5 59 C-72.11389609 53.34606249 -64.66804683 47.78529183 -57.1640625 42.2890625 C-50.33066631 37.27185134 -43.59353084 32.1338017 -36.86230469 26.98071289 C-30.12581183 21.83321626 -23.32603954 16.77804821 -16.47851562 11.77929688 C-11.82945772 8.37886688 -7.26916844 4.88776545 -2.75878906 1.30493164 C-1 0 -1 0 0 0 Z " fill="#34A752" transform="translate(512,99)"/>
<path d="M0 0 C4.56708384 2.95855899 8.83986216 6.27510918 13.12915039 9.61865234 C14.87687306 10.97147571 16.6255737 12.32303656 18.37524414 13.67333984 C19.18783282 14.31804733 20.0004215 14.96275482 20.83763409 15.6269989 C23.61936847 17.7814362 23.61936847 17.7814362 26.57640553 19.37190247 C30.92911841 21.95010893 34.11938339 23.90942269 35.66956139 28.87805176 C36.00624228 32.78338862 35.9896272 36.60396486 35.84863281 40.51318359 C35.83565147 42.00199557 35.82755309 43.49085687 35.82394409 44.97972107 C35.8004555 49.00368164 35.70905722 53.02352022 35.60505462 57.0460968 C35.50787626 61.25635066 35.47368265 65.46711449 35.43269348 69.67822266 C35.34564207 77.64410955 35.20228241 85.60793857 35.03847724 93.57257652 C34.85467915 102.64340286 34.7339701 111.71472931 34.61845243 120.78664207 C34.37951554 139.44039621 34.06169807 158.09206157 33.69165039 176.74365234 C30.36332155 175.45800099 27.72145168 174.21433445 24.93383789 171.97802734 C24.23605225 171.42518066 23.5382666 170.87233398 22.81933594 170.30273438 C22.07594971 169.7057373 21.33256348 169.10874023 20.56665039 168.49365234 C14.25240227 163.50027144 7.88072217 158.61565862 1.37915039 153.86865234 C-5.41033187 148.90360716 -12.12984102 143.85699094 -18.80834961 138.74365234 C-25.42773386 133.67702309 -32.08342341 128.66935658 -38.80834961 123.74365234 C-47.45857805 117.40682535 -55.98997749 110.92130854 -64.50756836 104.40771484 C-69.4201074 100.65203381 -74.36364395 96.93978212 -79.32397461 93.24755859 C-81.30834961 91.74365234 -81.30834961 91.74365234 -82.30834961 90.74365234 C-82.42293926 89.03325477 -82.4679762 87.31814764 -82.48535156 85.60400391 C-82.4981868 84.50485657 -82.51102203 83.40570923 -82.52424622 82.27325439 C-82.53163315 81.07239197 -82.53902008 79.87152954 -82.54663086 78.63427734 C-82.55470261 77.40134949 -82.56277435 76.16842163 -82.5710907 74.89813232 C-82.58496147 72.27520158 -82.59567013 69.65225256 -82.60351562 67.02929688 C-82.61661648 63.05228646 -82.66444377 59.07590448 -82.70874023 55.09912109 C-82.71887828 52.54834595 -82.72739088 49.99756373 -82.73413086 47.44677734 C-82.75163895 46.27020569 -82.76914703 45.09363403 -82.78718567 43.88140869 C-82.75110476 29.85916187 -78.52463335 17.79903884 -69.12475586 7.30615234 C-50.07452764 -11.2122961 -22.33642093 -13.59644309 0 0 Z " fill="#C4221F" transform="translate(82.308349609375,8.25634765625)"/>
<path d="M0 0 C13.53175242 8.71133582 20.95535854 19.60757148 24.75 35.1875 C25.32822388 39.66679772 25.47300686 44.09591964 25.52734375 48.609375 C25.54777237 49.83481018 25.56820099 51.06024536 25.58924866 52.32281494 C25.62238947 54.89071101 25.64451664 57.45877125 25.65600586 60.02685547 C25.68755226 63.94398972 25.79910974 67.8540081 25.91210938 71.76953125 C26.2044601 91.07696313 26.2044601 91.07696313 22.546875 95.72436523 C19.72226283 98.06269698 17.05014849 99.61036096 13.75 101.1875 C12.22857625 102.28112719 10.72902552 103.40611193 9.2578125 104.56640625 C7.79869201 105.63010113 6.3377068 106.69124213 4.875 107.75 C-2.06315846 112.8156916 -8.93003931 117.963821 -15.75 123.1875 C-23.13620191 128.84131168 -30.58195048 134.40220621 -38.0859375 139.8984375 C-44.02671841 144.26027332 -49.89739558 148.70821939 -55.75 153.1875 C-62.68772693 158.49460039 -69.65761203 163.75295762 -76.6875 168.9375 C-77.46222656 169.50984375 -78.23695313 170.0821875 -79.03515625 170.671875 C-79.76476562 171.208125 -80.494375 171.744375 -81.24609375 172.296875 C-81.87700928 172.76061523 -82.5079248 173.22435547 -83.15795898 173.70214844 C-85.8165748 175.58976877 -88.53469868 177.38266121 -91.25 179.1875 C-91.75534531 159.57776869 -92.16751361 139.96816099 -92.47014618 120.35422897 C-92.6128313 111.24602652 -92.78546614 102.1402696 -93.02978516 93.03417969 C-93.24277128 85.09302772 -93.39836949 77.15312665 -93.48638296 69.20957112 C-93.534928 65.00606927 -93.6112723 60.8074066 -93.75648499 56.60604095 C-94.68190354 28.98285329 -94.68190354 28.98285329 -88.78118896 22.53659058 C-85.51389763 19.76861822 -82.06226522 17.8095786 -78.15662766 16.08319855 C-75.45404279 14.81357397 -73.25425103 13.04832638 -70.953125 11.1640625 C-49.16809444 -5.30432711 -25.760878 -14.49292232 0 0 Z " fill="#FABB04" transform="translate(487.25,6.8125)"/>
</svg>
