<?xml version="1.0" encoding="UTF-8"?>
<svg version="1.1" xmlns="http://www.w3.org/2000/svg" width="2048" height="2048">
<path d="M0 0 C60.89581635 -0.06996385 121.79164781 -0.10543675 182.6875 -0.125 C184.55051672 -0.12560599 184.55051672 -0.12560599 186.45117015 -0.12622422 C272.23579763 -0.15377999 358.0204385 -0.13161612 944.58545181 0.83139527 C950.82457777 0.84417872 957.06370375 0.85695553 963.30282974 0.86972809 C963.98894123 0.87113285 964.67505272 0.8725376 965.38195546 0.87398493 C986.86438571 0.91796196 1008.34681736 0.96118422 1029.82925034 1.00380707 C1031.21265635 1.00655261 1032.59606236 1.00929824 1033.97946838 1.01204393 C1038.81368559 1.02163802 1043.6479028 1.03123 1048.48212002 1.0408202 C1101.3974771 1.14579521 1154.31282612 1.25385725 1207.22816515 1.36764497 C1211.07096459 1.37590486 1214.91376404 1.38416369 1218.75656348 1.39242058 C1221.3008922 1.39788773 1223.84522091 1.40335739 1226.38954961 1.4088296 C1243.77026145 1.44617434 1261.15097571 1.48203186 1278.53169314 1.51667039 C1307.35911133 1.57415676 1336.1865202 1.63503273 1365.01391602 1.70288086 C1366.62677548 1.70666845 1366.62677548 1.70666845 1368.27221797 1.71053255 C1438.18440713 1.8754245 1508.09165763 2.22135366 1578 3 C1577.31525918 17.50590186 1576.12871488 31.95173583 1574.86485291 46.41729736 C1574.64387381 48.97030897 1574.42313928 51.52334176 1574.20262557 54.0763936 C1573.72365012 59.61728558 1573.24263141 65.15799715 1572.76023912 70.69859266 C1572.03869765 78.98610751 1571.3204068 87.27390197 1570.60273124 95.56175237 C1569.38125689 109.66649863 1568.15717191 123.7710172 1566.93164635 137.87541199 C1565.69432787 152.11566454 1564.45823434 166.35602264 1563.22364235 180.59651184 C1563.10677363 181.94453129 1563.10677363 181.94453129 1562.98754393 183.31978345 C1562.59044548 187.90017645 1562.19336773 192.48057125 1561.79629783 197.06096673 C1558.93148662 230.10752872 1556.06404138 263.15386173 1553.19519043 296.20007324 C1550.35526133 328.91325755 1547.51650478 361.62654327 1544.67932129 394.33996582 C1544.59111001 395.3570589 1544.50289874 396.37415198 1544.4120144 397.42206607 C1543.42771109 408.77129908 1542.4434438 420.12053521 1541.45919347 431.46977282 C1539.6494928 452.33713774 1537.83964371 473.20448979 1536.02975464 494.07183838 C1535.93959004 495.11140688 1535.84942543 496.15097538 1535.75652857 497.22204595 C1532.90022545 530.15424719 1530.04326036 563.08639095 1527.18582153 596.01849365 C1527.00011252 598.15880355 1526.81440353 600.29911345 1526.62869455 602.43942335 C1525.88655772 610.99259648 1525.14441733 619.5457693 1524.40227554 628.098942 C1515.84311045 726.74325087 1507.28958257 825.38804749 1498.73982651 924.0331723 C1497.94132092 933.2461407 1497.14279983 942.45910777 1496.34427762 951.67207473 C1493.85016623 980.44794832 1491.3560831 1009.22382435 1488.86206397 1037.99970593 C1485.12479733 1081.12010765 1481.38730737 1124.24049 1477.64932789 1167.36082993 C1476.95202529 1175.40472979 1476.25473107 1183.44863037 1475.55746281 1191.49253321 C1474.73583515 1200.97107791 1473.91418874 1210.44962099 1473.09251404 1219.92816162 C1473.02549925 1220.7012201 1472.95848447 1221.47427857 1472.88943894 1222.27076306 C1471.05125428 1243.47527718 1469.21242344 1264.67973515 1467.37290665 1285.88413375 C1466.24311359 1298.90745139 1465.11348124 1311.93078296 1463.98390281 1324.95411921 C1463.79925569 1327.08296115 1463.61460233 1329.21180254 1463.42994766 1331.34064382 C1460.10381643 1369.68724924 1456.78648449 1408.03460361 1453.47868335 1446.38279452 C1452.61287853 1456.42016185 1451.74632556 1466.45746425 1450.8791008 1476.49470901 C1450.76797266 1477.78091373 1450.65684451 1479.06711845 1450.54234885 1480.39229907 C1449.99236057 1486.75756934 1449.44227177 1493.12283091 1448.89210773 1499.48808599 C1447.74011066 1512.81822446 1446.59067949 1526.14857924 1445.44470507 1539.47923684 C1444.6849314 1548.31512072 1443.92231985 1557.15075653 1443.15734643 1565.98619175 C1442.72155664 1571.0207607 1442.28714517 1576.05543898 1441.85634899 1581.09043789 C1441.46559732 1585.65730263 1441.07116752 1590.2238334 1440.67366812 1594.79011562 C1440.53076704 1596.43953126 1440.38927503 1598.08906966 1440.24928811 1599.73873517 C1440.0604986 1601.96125564 1439.86674704 1604.18328705 1439.67165756 1606.40526199 C1439.56526199 1607.6401188 1439.45886642 1608.87497561 1439.34924674 1610.14725232 C1439 1613 1439 1613 1438 1615 C1435.61266202 1615.85180113 1433.26753723 1616.58179765 1430.83081055 1617.26464844 C1430.07325879 1617.4836764 1429.31570704 1617.70270435 1428.53519917 1617.92836952 C1425.98779259 1618.66285667 1423.43730794 1619.38602416 1420.88671875 1620.109375 C1419.07906137 1620.62825057 1417.27161108 1621.14784811 1415.46435547 1621.66812134 C1411.58033842 1622.78466328 1407.69495744 1623.89627847 1403.80844116 1625.00408936 C1397.64782672 1626.76016009 1391.49028945 1628.52684513 1385.33325195 1630.29541016 C1377.97477449 1632.40840767 1370.61563952 1634.5190819 1363.25557232 1636.62653542 C1346.60464801 1641.39472219 1329.96636599 1646.2060778 1313.33120728 1651.02893066 C1308.65950381 1652.38329249 1303.98738978 1653.73623401 1299.31518555 1655.08886719 C1277.290825 1661.46528603 1255.26848407 1667.84867168 1233.24645996 1674.2331543 C1202.6433797 1683.10536968 1172.03675707 1691.96533299 1141.42965698 1700.82366943 C1130.27723619 1704.05141588 1119.12490897 1707.27948541 1107.97265625 1710.5078125 C1106.79803581 1710.84783798 1106.79803581 1710.84783798 1105.59968567 1711.19473267 C1100.06645389 1712.79647732 1094.53322639 1714.39823674 1089 1716 C1082.67578426 1717.83073956 1076.35156622 1719.66147119 1070.02734375 1721.4921875 C1068.8529348 1721.83215256 1068.8529348 1721.83215256 1067.65480042 1722.1789856 C1056.4904782 1725.41079519 1045.32605186 1728.64224487 1034.16156387 1731.87348175 C1026.96185285 1733.95724149 1019.76216782 1736.041091 1012.5625 1738.125 C1011.77275787 1738.35358704 1010.98301575 1738.58217407 1010.16934204 1738.81768799 C985.54310647 1745.94571477 960.91870435 1753.08004643 936.29562378 1760.21896362 C919.49230731 1765.09067949 902.6882364 1769.95977708 885.8828125 1774.82421875 C885.03565926 1775.06943394 884.18850601 1775.31464912 883.31568146 1775.56729507 C875.05682381 1777.95784756 866.79791545 1780.34822477 858.5388298 1782.73798943 C857.00962951 1783.18051572 855.48045703 1783.62313813 853.95131302 1784.06585884 C850.25275411 1785.13660289 846.55381455 1786.20598652 842.85394287 1787.27218628 C836.34909569 1789.14849387 829.84902488 1791.03727221 823.3650074 1792.98453426 C820.51277032 1793.84059466 817.65832444 1794.68915516 814.8037529 1795.53739357 C813.47141469 1795.93581084 812.14022957 1796.33810896 810.81035233 1796.74466515 C808.97988074 1797.30415271 807.14503332 1797.84926205 805.31005859 1798.39379883 C804.27996674 1798.70521317 803.24987488 1799.0166275 802.18856812 1799.33747864 C795.67518008 1800.69083179 790.31643582 1800.08997897 783.97680664 1798.28540039 C783.31676919 1798.10065344 782.65673174 1797.91590649 781.97669315 1797.72556114 C779.78493539 1797.10942156 777.59770556 1796.4785599 775.41015625 1795.84765625 C773.82951748 1795.40019689 772.24860748 1794.95369468 770.66744995 1794.5080719 C767.25945077 1793.54546109 763.8533941 1792.5763472 760.44869995 1791.60211182 C754.96879208 1790.03414819 749.4848543 1788.48062193 744.00024414 1786.92919922 C737.23341705 1785.01408834 730.4675701 1783.09558384 723.7029295 1781.17276382 C711.44105778 1777.68770987 699.17204267 1774.22864314 686.8984375 1770.78515625 C685.54301188 1770.40485008 685.54301188 1770.40485008 684.16020393 1770.01686096 C680.50447041 1768.99122182 676.84869059 1767.96574798 673.1928339 1766.94054794 C663.91974124 1764.34008053 654.64796985 1761.73491704 645.37628365 1759.12944031 C640.68986855 1757.81252263 636.00338563 1756.49584638 631.31689453 1755.17919922 C630.38610234 1754.91769703 629.45531015 1754.65619484 628.49631214 1754.38676834 C618.98195986 1751.7138445 609.46729982 1749.04201688 599.95261383 1746.37028122 C564.26967219 1736.35039739 528.58819225 1726.32548015 492.91533661 1716.26974106 C467.40927516 1709.07998665 441.89546103 1701.91809349 416.37901688 1694.76528168 C391.02698643 1687.65850726 365.67976122 1680.53499494 340.33831787 1673.39056396 C316.43338467 1666.65126016 292.52210741 1659.93482305 268.60723495 1653.23087692 C241.72531981 1645.69516505 214.84599663 1638.15038883 187.97344971 1630.58132935 C185.72704215 1629.9486369 183.48059202 1629.31609584 181.23413086 1628.68359375 C180.15793393 1628.38051709 180.15793393 1628.38051709 179.05999565 1628.07131767 C177.64416357 1627.67267037 176.2282772 1627.27421584 174.81233406 1626.87596321 C171.47550187 1625.93693284 168.13992266 1624.99390638 164.80709839 1624.04074097 C159.03722515 1622.39530055 153.26937058 1620.79721162 147.44384766 1619.35986328 C146.45423538 1619.10636612 145.46462311 1618.85286896 144.44502258 1618.59169006 C142.64524229 1618.13360821 140.83932976 1617.69865464 139.02702332 1617.29295349 C138.25087173 1617.09130081 137.47472015 1616.88964813 136.67504883 1616.68188477 C136.0074202 1616.52406021 135.33979156 1616.36623566 134.65193176 1616.20362854 C131.93805085 1614.22624388 131.64544694 1611.14892415 131 1608 C130.48450191 1604.11424107 130.17424923 1600.21865042 129.8679018 1596.31148052 C129.76965446 1595.13099534 129.67140711 1593.95051015 129.57018258 1592.73425269 C129.29840973 1589.45135888 129.0330129 1586.16806146 128.77026577 1582.88444034 C128.48205743 1579.30240446 128.18559027 1575.72105061 127.89017814 1572.13960296 C127.37158662 1565.83850103 126.858287 1559.53698514 126.34839869 1553.23517323 C125.58550953 1543.80683701 124.81443234 1534.37918275 124.04172154 1524.95164703 C122.72659737 1508.90346831 121.41816912 1492.85474994 120.11334419 1476.80573082 C118.79308432 1460.56725561 117.46969098 1444.32904028 116.14243889 1428.09113503 C116.01694582 1426.55579578 116.01694582 1426.55579578 115.88891754 1424.98943958 C115.46246362 1419.77220387 115.03595599 1414.55497254 114.60942774 1409.3377429 C111.52623354 1371.62340954 108.44973651 1333.90853232 105.37683105 1296.19335938 C102.33982835 1258.91917875 99.30008928 1221.64522297 96.25646973 1184.37158203 C96.16209187 1183.21577406 96.06771401 1182.05996608 95.97047622 1180.86913362 C94.82076523 1166.78916791 93.67093317 1152.70921208 92.52105605 1138.62925994 C90.7727183 1117.221227 89.02462782 1095.81317387 87.27657896 1074.40511735 C86.98278243 1070.8070525 86.68898186 1067.20898798 86.39518102 1063.61092348 C83.61432066 1029.5545713 80.83478413 995.49811127 78.05620028 961.44157328 C68.29334547 841.78035091 58.51390419 722.120502 46.43625422 574.70603924 C44.48473112 550.88803312 42.53366264 527.06998977 40.58268841 503.25193868 C39.67203533 492.13443932 38.76135179 481.01694245 37.85066891 469.89944553 C37.76112108 468.80625715 37.67157324 467.71306876 37.57931184 466.58675345 C36.94960576 458.89938815 36.31989657 451.2120231 35.69018555 443.5246582 C35.60169504 442.44438545 35.51320453 441.36411271 35.42203248 440.25110442 C34.09474633 424.04790243 32.76741759 407.84470393 31.44003296 391.64151001 C31.35323657 390.5819943 31.26644018 389.52247859 31.1770136 388.43085635 C29.16625452 363.88578455 27.15513602 339.34074227 25.14313126 314.79577255 C25.05638003 313.7374701 24.96962881 312.67916765 24.88024876 311.58879542 C24.443532 306.26118565 24.00681025 300.93357628 23.57008674 295.60596705 C23.48395083 294.55519071 23.39781492 293.50441436 23.30906884 292.4217963 C23.13552137 290.30468197 22.9619737 288.18756766 22.78842583 286.07045336 C19.97966709 251.80616082 17.17278666 217.54171488 14.36834335 183.27706884 C13.9819964 178.55669677 13.5956279 173.83632645 13.20924568 169.11595726 C13.13352924 168.19093438 13.0578128 167.2659115 12.97980193 166.31285763 C11.78040958 151.66064711 10.57904518 137.00859898 9.37683729 122.35661923 C8.19832378 107.99298014 7.02179782 93.62917944 5.84743399 79.26520046 C5.15895524 70.8449862 4.4689028 62.42490441 3.77656154 54.00500684 C3.26422559 47.77213666 2.75483024 41.53902953 2.24661762 35.30582186 C2.04108491 32.79070812 1.8345828 30.27567338 1.62702929 27.7607256 C1.34671882 24.3625141 1.06988486 20.96403693 0.79394913 17.56546783 C0.7123124 16.58604297 0.63067567 15.6066181 0.5465651 14.59751369 C0.15378676 9.71195684 -0.08564828 4.90130859 0 0 Z " fill="#FF4E1D" transform="translate(235,124)"/>
<path d="M0 0 C329.67 0 659.34 0 999 0 C999 11.24889041 999 11.24889041 998.54443359 15.81103516 C998.44343857 16.84754211 998.34244354 17.88404907 998.23838806 18.95196533 C998.07011253 20.60382843 998.07011253 20.60382843 997.8984375 22.2890625 C997.72321312 24.06999298 997.72321312 24.06999298 997.54444885 25.88690186 C997.22547211 29.1231718 996.90239106 32.35900217 996.57786179 35.59471893 C996.23347356 39.04142474 995.89517861 42.48872667 995.55688477 45.93603516 C995.48813424 46.636499 995.41938372 47.33696285 995.34854984 48.05865288 C995.20820966 49.48869592 995.06789412 50.91874138 994.92760277 52.34878922 C994.71333612 54.53097937 994.49848891 56.71311173 994.28352356 58.89523315 C992.79167233 74.05111037 991.35759497 89.21225289 989.9375 104.375 C989.75276627 106.34289993 989.75276627 106.34289993 989.56430054 108.35055542 C988.1903911 122.99759041 986.84422725 137.64678426 985.546875 152.30078125 C985.43102554 153.60785034 985.31517609 154.91491943 985.19581604 156.26159668 C984.64587984 162.47591232 984.09996898 168.6905458 983.56030273 174.90576172 C983.36705877 177.10775038 983.17378265 179.30973623 982.98046875 181.51171875 C982.85276093 183.00533684 982.85276093 183.00533684 982.72247314 184.52912903 C982.64156433 185.44594955 982.56065552 186.36277008 982.47729492 187.30737305 C982.4087883 188.09806686 982.34028168 188.88876068 982.2696991 189.70341492 C981.98176117 192.15531023 981.48416061 194.57919696 981 197 C729.21 197 477.42 197 218 197 C222.29 238.58 226.58 280.16 231 323 C238 394.2173913 238 394.2173913 238 404 C476.92 404 715.84 404 962 404 C962 410.66375069 961.85656771 417.0578022 961.25317383 423.6574707 C961.17332119 424.56973797 961.09346855 425.48200523 961.01119614 426.42191696 C960.74735424 429.42359431 960.47726672 432.42467331 960.20703125 435.42578125 C960.01852774 437.55395994 959.830379 439.68217008 959.64256287 441.81040955 C959.14143727 447.4752663 958.6346884 453.13960662 958.12666321 458.80384827 C957.70645878 463.49679434 957.28960822 468.19003598 956.87270164 472.88327599 C954.55082365 499.01347262 952.1834358 525.13840329 949.6730957 551.2512207 C948.06208556 568.05393426 946.61641765 584.86938136 945.18640137 601.68835449 C943.62298591 620.05650057 941.9458883 638.41080003 940.1875 656.76123047 C938.5222331 674.16587151 936.98088729 691.57874941 935.5 709 C933.83408561 728.59792101 932.06360111 748.1823565 930.1875 767.76123047 C928.5222331 785.16587151 926.98088729 802.57874941 925.5 820 C923.92659828 838.50959616 922.27147721 857.00830371 920.5 875.5 C918.50619291 896.32652227 916.6642503 917.16331456 914.88598633 938.00927734 C913.36046335 955.88494179 911.78833711 973.75594365 910.1875 991.625 C910.07631836 992.86641754 909.96513672 994.10783508 909.85058594 995.38687134 C909.23497233 1002.25802659 908.61823181 1009.12907983 908 1016 C903.37185051 1017.78003353 898.82362218 1019.42079083 894.0234375 1020.68359375 C892.94771484 1020.96928223 891.87199219 1021.2549707 890.76367188 1021.54931641 C889.64541016 1021.84241699 888.52714844 1022.13551758 887.375 1022.4375 C885.03885574 1023.05781562 882.70291593 1023.67890173 880.3671875 1024.30078125 C879.25827148 1024.59549316 878.14935547 1024.89020508 877.00683594 1025.19384766 C872.43040192 1026.42081949 867.87939344 1027.72579131 863.328125 1029.04296875 C856.98734709 1030.86631451 850.62459742 1032.61166905 844.26611328 1034.37207031 C842.13406431 1034.96285139 840.00246771 1035.55522635 837.87109375 1036.1484375 C827.1476385 1039.13265224 816.4175872 1042.09276921 805.68701172 1045.05126953 C796.81275857 1047.49849989 787.94123247 1049.95527558 779.07275391 1052.42333984 C776.14062685 1053.23908591 773.20814738 1054.05356114 770.27563477 1054.86791992 C768.76173484 1055.28842061 767.24789989 1055.7091553 765.73413086 1056.13012695 C762.06102003 1057.15138444 758.38709776 1058.16945782 754.7109375 1059.1796875 C746.0736261 1061.55851687 737.46875023 1064.0305447 728.875 1066.5625 C720.94669302 1068.8963605 713.01766679 1071.03099962 704.984375 1072.97265625 C700.27380046 1074.15029989 695.64218898 1075.58026314 691 1077 C684.34781962 1079.03362692 677.69262971 1080.89413091 670.93310547 1082.53344727 C663.66778336 1084.3019916 656.47926673 1086.33308732 649.28222656 1088.35888672 C645.52390951 1089.414657 641.76179211 1090.45669367 638 1091.5 C636.49998134 1091.91659949 634.99998135 1092.33326619 633.5 1092.75 C630.5 1093.58333333 627.5 1094.41666667 624.5 1095.25 C623.75838623 1095.4560083 623.01677246 1095.6620166 622.25268555 1095.87426758 C620.74374304 1096.29340919 619.23479113 1096.71251695 617.72583008 1097.1315918 C614.11257482 1098.13512261 610.4994516 1099.13912127 606.88671875 1100.14453125 C596.15783572 1103.12925811 585.4227613 1106.09134267 574.68701172 1109.05126953 C565.81275857 1111.49849989 556.94123247 1113.95527558 548.07275391 1116.42333984 C543.63649677 1117.65754942 539.19951615 1118.88915664 534.76269531 1120.12133789 C530.13886945 1121.40556563 525.51524599 1122.69051313 520.89233398 1123.97802734 C519.35469018 1124.40501635 517.81645066 1124.82986663 516.27758789 1125.25244141 C513.08250386 1126.13099233 509.90621374 1127.02923792 506.7421875 1128.015625 C496.19417775 1131.2476057 488.35062676 1128.69409946 477.97167969 1125.58251953 C474.55592833 1124.57335872 471.12111241 1123.63372272 467.6875 1122.6875 C460.43402767 1120.67901524 453.18487688 1118.65536514 445.9375 1116.625 C444.8851416 1116.33020752 443.8327832 1116.03541504 442.74853516 1115.73168945 C438.40944006 1114.51602019 434.07044522 1113.29999331 429.73144531 1112.08398438 C418.78554372 1109.01663601 407.83928991 1105.95088011 396.88500977 1102.91357422 C389.33230496 1100.81791782 381.78557341 1098.70098704 374.23828125 1096.5859375 C368.16085043 1094.88336857 362.08195048 1093.18634942 356 1091.5 C343.57019647 1088.0529 331.15183581 1084.56481087 318.73144531 1081.08398438 C307.78554372 1078.01663601 296.83928991 1074.95088011 285.88500977 1071.91357422 C278.33230496 1069.81791782 270.78557341 1067.70098704 263.23828125 1065.5859375 C257.16085055 1063.88336861 251.08196112 1062.18631085 245 1060.5 C236.74188271 1058.21031868 228.49004227 1055.89840706 220.23828125 1053.5859375 C214.16085043 1051.88336857 208.08195048 1050.18634942 202 1048.5 C189.57019647 1045.0529 177.15183581 1041.56481087 164.73144531 1038.08398438 C149.36953866 1033.77831546 149.36953866 1033.77831546 134 1029.5 C126.66493846 1027.46452256 119.33170012 1025.42255325 112 1023.375 C110.96101562 1023.08560547 109.92203125 1022.79621094 108.8515625 1022.49804688 C106.85801229 1021.94072403 104.86576724 1021.37870679 102.875 1020.81152344 C100.94236227 1020.26599968 99.00462711 1019.73825134 97.0625 1019.22753906 C95.70125 1018.85580566 95.70125 1018.85580566 94.3125 1018.4765625 C93.50425781 1018.26338379 92.69601562 1018.05020508 91.86328125 1017.83056641 C91.24839844 1017.55647949 90.63351562 1017.28239258 90 1017 C88.73113657 1013.19340972 88.52186477 1009.43813614 88.203125 1005.46484375 C88.1294722 1004.58495789 88.0558194 1003.70507202 87.97993469 1002.79852295 C87.81883672 1000.86902073 87.65943649 998.93937622 87.50149536 997.00961304 C87.1556556 992.78504666 86.80160485 988.56117847 86.44825745 984.3372345 C86.25905087 982.07391429 86.07028996 979.8105568 85.88194275 977.54716492 C84.90380041 965.79964826 83.89167565 954.05513107 82.87585449 942.31082153 C82.45207767 937.41068538 82.02930609 932.51046266 81.60647583 927.61024475 C81.28479815 923.88256904 80.96296848 920.15490648 80.64111328 916.42724609 C79.69684641 905.48956284 78.75422166 894.55173803 77.81149292 883.61392212 C77.29106443 877.57594212 76.77052661 871.53797154 76.25 865.5 C76.04166614 863.08333338 75.83333281 860.66666671 75.625 858.25 C75.521875 857.05375 75.41875 855.8575 75.3125 854.625 C74.375 843.75 74.375 843.75 74.06254578 840.12548828 C73.8540696 837.70719317 73.64558367 835.2888989 73.43708801 832.87060547 C72.91836038 826.85386084 72.39979865 820.83710201 71.8815918 814.8203125 C70.91926129 803.64891262 69.95538722 792.47765299 68.98574829 781.30688477 C68.53543696 776.11789349 68.08604665 770.92882261 67.63671875 765.73974609 C67.42542352 763.30253203 67.21369365 760.8653556 67.00146484 758.42822266 C65.90819183 745.87236188 64.8444256 733.31455304 63.85546875 720.75 C63.76896561 719.67258545 63.68246246 718.5951709 63.59333801 717.48510742 C63.51508286 716.47424072 63.4368277 715.46337402 63.35620117 714.421875 C63.28713058 713.54112305 63.21806 712.66037109 63.14689636 711.75292969 C62.973651 708.50620329 63 705.25134529 63 702 C128.34 702 193.68 702 261 702 C262.00783338 705.02350015 262.27028962 707.44451252 262.49316406 710.61474609 C262.61927063 712.36448227 262.61927063 712.36448227 262.7479248 714.14956665 C262.83626587 715.42794403 262.92460693 716.70632141 263.015625 718.0234375 C263.11225785 719.37766422 263.20931358 720.73186082 263.3067627 722.08602905 C263.51546503 724.99337728 263.72210901 727.90086113 263.92712402 730.80847168 C264.47221187 738.53192166 265.03197216 746.25431095 265.59375 753.9765625 C265.6796703 755.15934784 265.6796703 755.15934784 265.76732635 756.36602783 C267.17485061 775.70473302 268.76531197 795.02740986 270.38769531 814.34912109 C270.58679011 816.7275222 270.78569056 819.10593958 270.984375 821.484375 C271.07761047 822.59773224 271.17084595 823.71108948 271.26690674 824.85818481 C271.87304184 832.19175274 272.37997982 839.52352784 272.76269531 846.87207031 C272.99721934 849.96334795 273.44112567 852.95211833 274 856 C274.53028809 856.13986328 275.06057617 856.27972656 275.60693359 856.42382812 C286.72843782 859.37186803 297.76986444 862.49830047 308.75 865.9375 C318.77666183 869.07646394 328.85222078 871.92893648 339.02246094 874.56616211 C345.16519688 876.17306622 351.17096607 878.01256239 357.18164062 880.05810547 C361.19071145 881.39793527 365.24163917 882.552344 369.3125 883.6875 C371.1330335 884.20104012 372.95333073 884.71541826 374.7734375 885.23046875 C376.25215332 885.6488501 376.25215332 885.6488501 377.76074219 886.07568359 C381.33651723 887.09602459 384.90717174 888.13338685 388.4765625 889.17578125 C389.12405457 889.36481018 389.77154663 889.55383911 390.43865967 889.74859619 C391.76689023 890.13640044 393.09511692 890.52421794 394.42333984 890.91204834 C404.03046994 893.71645695 413.64323566 896.478109 423.3125 899.0625 C432.28734451 901.46353625 441.14516395 904.18336593 450.01074219 906.95800781 C459.04204742 909.76064136 468.13715678 912.26564616 477.28613281 914.65405273 C478.80158691 915.0515271 478.80158691 915.0515271 480.34765625 915.45703125 C481.31203613 915.7092041 482.27641602 915.96137695 483.27001953 916.22119141 C485.82400683 916.94979268 488.26258759 917.82529739 490.74609375 918.76171875 C498.25207978 921.3069342 505.46863184 918.44535987 512.75 916.25 C519.80070447 914.17655588 526.85883274 912.23650366 534 910.5 C540.65172131 908.87520655 547.23969738 907.10637548 553.8125 905.1875 C562.74466715 902.58157188 571.7351644 900.23602106 580.75 897.9375 C589.59313701 895.68271512 598.4024025 893.37627213 607.13476562 890.72021484 C613.13181642 888.91348913 619.19679435 887.43031468 625.2800293 885.94458008 C631.39718961 884.43653625 637.45118577 882.76104009 643.5 881 C650.23980947 879.03797348 656.99122698 877.2189294 663.8125 875.5625 C671.3754492 873.72139479 678.84683359 871.63952753 686.3125 869.4375 C700.59865673 865.22674775 700.59865673 865.22674775 706.6875 863.5625 C708.36392578 863.10037109 708.36392578 863.10037109 710.07421875 862.62890625 C712.83652746 862.03513896 715.19082519 861.95234673 718 862 C718.05281128 860.46472656 718.05281128 860.46472656 718.10668945 858.8984375 C718.70204575 844.22639733 720.32627418 829.68507408 721.9541626 815.09809494 C722.59916813 809.29841247 723.22997223 803.49715308 723.8628273 797.69613457 C724.02486078 796.21131845 724.18708014 794.72652261 724.34948349 793.2417469 C725.9817244 778.31514814 727.50329156 763.37827956 729 748.4375 C731.28335918 725.69755789 733.7211113 702.97708677 736.23088074 680.26129913 C737.69830508 666.97745273 739.15069463 653.69285309 740.51953125 640.3984375 C740.69510307 638.69475258 740.69510307 638.69475258 740.8742218 636.95664978 C741.41852149 631.66280881 741.95774113 626.36850295 742.49047852 621.07348633 C742.67849771 619.22997532 742.86656431 617.38646915 743.0546875 615.54296875 C743.13664871 614.7119162 743.21860992 613.88086365 743.30305481 613.02462769 C743.62788922 609.86147499 743.99086626 607.02740121 745 604 C517.3 604 289.6 604 55 604 C43.54118796 483.68247358 43.54118796 483.68247358 38.63677979 428.24591064 C37.52011172 415.62406512 36.3989757 403.00261563 35.27431107 390.38148022 C35.14383618 388.91716293 35.01341144 387.45284118 34.88303757 385.9885149 C32.86627379 363.33944853 30.75293244 340.70119899 28.57732391 318.06684494 C25.99184728 291.15166687 23.57385194 264.22280141 21.18988037 237.28912354 C19.99980515 223.84585818 18.8018342 210.4032959 17.6015625 196.9609375 C17.42690649 195.0045315 17.42690649 195.0045315 17.24872208 193.00860214 C15.52426506 173.7073 13.74966911 154.41229572 11.875 135.125 C9.25927382 108.20301006 6.84157528 81.26396041 4.43827057 54.32228851 C4.126648 50.83096369 3.81434818 47.33970002 3.50189209 43.84844971 C3.01032341 38.35368611 2.52076396 32.85874716 2.0328598 27.363657 C1.85054891 25.31276308 1.66767888 23.26191878 1.48423004 21.21112633 C1.23143735 18.38284221 0.98088696 15.5543684 0.73095703 12.72583008 C0.61883786 11.47898028 0.61883786 11.47898028 0.50445366 10.2069416 C0.2041814 6.784493 0 3.43881088 0 0 Z " fill="#FFFEFE" transform="translate(520,453)"/>
<path d="M0 0 C47.65561486 -0.04241501 47.65561486 -0.04241501 66.62524414 -0.05102539 C68.40018885 -0.05183363 68.40018885 -0.05183363 70.21099102 -0.0526582 C162.14095546 -0.09322345 254.07040718 -0.00676854 419.70301788 0.38144209 C434.61200111 0.41929259 449.52098759 0.45526083 464.42997908 0.48970072 C483.88333645 0.53465024 503.33668118 0.58293562 522.79001611 0.63677824 C532.3008594 0.66304719 541.81170105 0.68803535 551.32255745 0.70909119 C559.301966 0.72677871 567.28135823 0.74770388 575.26074744 0.77267468 C579.28628847 0.78518937 583.31181907 0.79638611 587.33737373 0.80341804 C607.90918559 0.84060326 628.44157114 1.23929783 649 2 C649.00563572 3.59236371 649.00964543 5.18473322 649.01297474 6.77710342 C649.01538318 7.66385325 649.01779161 8.55060307 649.02027303 9.4642241 C648.99506582 12.6171739 648.77808895 15.72616194 648.49682617 18.86621094 C648.3310054 20.7552565 648.3310054 20.7552565 648.16183472 22.6824646 C648.03892716 24.03310575 647.91597047 25.38374242 647.79296875 26.734375 C647.66617048 28.16383159 647.53980722 29.59332682 647.41384888 31.02285767 C647.1472898 34.04009203 646.87824449 37.05708909 646.60708618 40.07391357 C645.97272134 47.13359359 645.35080898 54.19437433 644.72881889 61.25515366 C644.59191736 62.8087894 644.45485915 64.36241135 644.31764412 65.91601944 C643.24506733 78.06378126 642.23764739 90.21508884 641.3125 102.375 C640.40340995 114.27124598 639.35419086 126.14801561 638.16665649 138.01998901 C637.31297301 146.61900636 636.53122343 155.22210506 635.80519104 163.83291054 C635.48386419 167.64166025 635.15885145 171.45009579 634.83398438 175.25854492 C634.7661248 176.05457721 634.69826523 176.85060949 634.6283493 177.67076397 C633.93285353 185.81420951 633.21809627 193.95593185 632.50028992 202.0974369 C632.27975695 204.59896711 632.05956939 207.10052751 631.83947754 209.60209656 C631.24478623 216.36023108 630.65000012 223.11835628 630.05224609 229.8762207 C628.27623353 249.96175273 626.56044622 270.04944162 625.02038574 290.15461731 C624.28745901 299.67756213 623.44329225 309.18292944 622.5 318.6875 C622.36603528 320.04015326 622.23209883 321.39280932 622.09819031 322.74546814 C621.92003532 324.54402 621.92003532 324.54402 621.73828125 326.37890625 C620.85872462 335.34217014 620.09359754 344.31439126 619.3359375 353.28857422 C619.20709062 354.81348158 619.0781814 356.33838368 618.94921875 357.86328125 C618.8463002 359.08032745 618.8463002 359.08032745 618.74130249 360.32196045 C618.03641888 368.62609761 617.30927691 376.92826805 616.58203125 385.23046875 C616.05438374 391.25778593 615.52700087 397.28512625 615 403.3125 C614.93363091 404.0715715 614.86726181 404.83064301 614.79888153 405.61271667 C613.16787382 424.27495492 611.56910542 442.93776872 610.14111328 461.61685181 C609.27978499 472.85952651 608.24278908 484.07831102 607.11987305 495.2980957 C606.15697739 505.04469108 605.36797278 514.79712842 604.625 524.5625 C603.33063932 541.56342974 601.76781399 558.53480382 600.16955566 575.50958252 C598.72093749 590.91856577 597.37236477 606.32849013 596.19824219 621.76074219 C595.31971106 633.28962279 594.27198913 644.78903912 593.12011719 656.29443359 C592.15739689 666.04228756 591.36845162 675.79592981 590.625 685.5625 C589.47323792 700.6621923 588.11418375 715.7364696 586.6875 730.8125 C584.35587388 755.46311472 582.30097145 780.13254657 580.32341862 804.813694 C580.02702287 808.51003338 579.72895221 812.20623559 579.4296875 815.90234375 C579.37155066 816.62060963 579.31341381 817.3388755 579.25351524 818.07890701 C578.29255248 829.89965219 577.18545988 841.7024488 576.02008057 853.50460815 C575.16793351 862.15807466 574.41256894 870.81084914 573.77813721 879.48269653 C572.59666247 895.52866805 571.13735086 911.5448046 569.625 927.5625 C567.60169828 948.99740615 565.78473165 970.44450114 564.05529785 991.90460205 C562.82924375 1007.10478415 561.55281199 1022.29006878 560.01855469 1037.46240234 C559.08291586 1046.82010842 558.33948829 1056.18598283 557.625 1065.5625 C556.43785785 1081.14164423 555.03023391 1096.69494169 553.5625 1112.25 C551.75950476 1131.3619524 550.12029303 1150.4798674 548.62677002 1169.6184082 C547.57633797 1183.06372941 546.42140716 1196.48530862 545.06933594 1209.90380859 C544.119128 1219.44814793 543.35310504 1228.9993611 542.625 1238.5625 C541.22273294 1256.96338678 539.52934839 1275.33442536 537.80126953 1293.70727539 C537.59533965 1295.89729461 537.38944715 1298.08731734 537.18359375 1300.27734375 C537.08423523 1301.33371536 536.98487671 1302.39008698 536.88250732 1303.47846985 C535.868171 1314.31433074 534.92558355 1325.15623859 534 1336 C532.939021 1336.29656494 531.87804199 1336.59312988 530.78491211 1336.89868164 C507.07611868 1343.47227804 507.07611868 1343.47227804 483.5 1350.5 C473.22134004 1353.69656216 462.86455697 1356.59756929 452.5 1359.5 C437.17524823 1363.78876614 437.17524823 1363.78876614 421.9375 1368.375 C409.33354737 1372.30146499 396.60627442 1375.80114744 383.89813232 1379.37145996 C372.42135498 1382.59751983 360.96393427 1385.84943467 349.58203125 1389.3984375 C339.409101 1392.54279776 329.14195138 1395.35987483 318.88946533 1398.2310791 C309.54130171 1400.85070285 300.206467 1403.48483391 290.9375 1406.375 C279.35839142 1409.98219893 267.6748558 1413.21995153 256 1416.5 C238.70139006 1421.33412435 238.70139006 1421.33412435 221.5 1426.5 C210.08699571 1430.06218857 198.57026491 1433.26082511 187.0625 1436.5 C186.04384857 1436.78676605 185.02519714 1437.0735321 183.97567749 1437.36898804 C182.96494171 1437.65351837 181.95420593 1437.93804871 180.9128418 1438.23120117 C178.91584066 1438.79341367 176.91885152 1439.35566882 174.921875 1439.91796875 C173.95441849 1440.19037888 172.98696198 1440.462789 171.9901886 1440.74345398 C159.31300667 1444.31642462 146.67229076 1448.00866552 134.05078125 1451.7734375 C131.90892926 1452.41171038 129.76699983 1453.04972344 127.625 1453.6875 C125.99703491 1454.17234863 125.99703491 1454.17234863 124.33618164 1454.66699219 C112.56777582 1458.15552237 100.75887784 1461.50055307 88.95257568 1464.85803223 C75.66932597 1468.62440658 75.66932597 1468.62440658 62.44810486 1472.60134888 C53.81643047 1475.27633173 45.15766118 1477.84375475 36.46484375 1480.3125 C35.43035599 1480.60665298 34.39586823 1480.90080597 33.33003235 1481.20387268 C30.11627491 1482.11656971 26.90191218 1483.02711194 23.6875 1483.9375 C22.63276489 1484.23711639 21.57802979 1484.53673279 20.49133301 1484.84542847 C17.47812476 1485.70070194 14.46387352 1486.55218483 11.44921875 1487.40234375 C10.5264061 1487.66446655 9.60359344 1487.92658936 8.65281677 1488.19665527 C7.80534378 1488.43460815 6.95787079 1488.67256104 6.0847168 1488.91772461 C5.34134567 1489.12755478 4.59797455 1489.33738495 3.83207703 1489.55357361 C2 1490 2 1490 0 1490 C0 1427.63 0 1365.26 0 1301 C7.59 1299.02 15.18 1297.04 23 1295 C28.00371051 1293.48403319 28.00371051 1293.48403319 32.99414062 1291.92529297 C38.86099099 1290.11930183 44.81239473 1288.61614481 50.75 1287.0625 C59.4888056 1284.76041415 68.20302332 1282.41216203 76.85351562 1279.79541016 C83.69958575 1277.74607043 90.61942911 1275.98249297 97.54663086 1274.22998047 C102.50254692 1272.9638352 107.39893898 1271.58961724 112.28125 1270.0625 C119.38312628 1267.8467104 126.55390265 1265.94544418 133.75 1264.0625 C142.4888056 1261.76041415 151.20302332 1259.41216203 159.85351562 1256.79541016 C165.77943139 1255.02151442 171.7598687 1253.478476 177.75 1251.9375 C184.66261443 1250.15767865 191.50827925 1248.2914179 198.3125 1246.12890625 C211.43782058 1242.11066722 224.72418052 1238.57775798 237.99609375 1235.078125 C243.20012625 1233.690383 248.37890779 1232.21181166 253.5625 1230.75 C263.83441279 1227.85452979 274.1371909 1225.08709452 284.4541626 1222.35809326 C292.29194843 1220.28275328 300.09591846 1218.14159533 307.85644531 1215.79467773 C313.78127024 1214.02066624 319.76085576 1212.47822207 325.75 1210.9375 C332.66261443 1209.15767865 339.50827925 1207.2914179 346.3125 1205.12890625 C359.7398087 1201.01821535 373.33226869 1197.38903637 386.9140625 1193.82421875 C390.28811447 1192.92304791 393.64306681 1191.96277022 397 1191 C397.64707115 1183.79177733 398.29256455 1176.58341406 398.9375 1169.375 C399.04304199 1168.19586029 399.14858398 1167.01672058 399.25732422 1165.80184937 C400.81137737 1148.4295718 402.34906297 1131.05589615 403.8749485 1113.68112183 C404.74933762 1103.72485936 405.62450683 1093.76866543 406.5 1083.8125 C406.59847103 1082.69258919 406.69694206 1081.57267838 406.79839706 1080.41883087 C409.13543648 1053.84636346 411.48717108 1027.27691898 414.04101562 1000.72427368 C415.75156424 982.92987722 417.29914453 965.12372445 418.81359863 947.31164551 C420.37701409 928.94349943 422.0541117 910.58919997 423.8125 892.23876953 C425.4777669 874.83412849 427.01911271 857.42125059 428.5 840 C430.16591439 820.40207899 431.93639889 800.8176435 433.8125 781.23876953 C435.47776712 763.83412617 437.01891899 746.42123529 438.5 729 C440.05643782 710.69878806 441.69373912 692.40941921 443.4375 674.125 C446.43176687 642.42958967 449.20176603 610.71331829 452 579 C213.08 579 -25.84 579 -272 579 C-273.98 558.87 -275.96 538.74 -278 518 C-279.13774527 506.73654782 -280.27769471 495.47358404 -281.43537092 484.21220756 C-281.8130858 480.53287401 -282.18867086 476.85332304 -282.56436157 473.17378235 C-283.82258883 460.853092 -285.08233959 448.53256087 -286.34814453 436.21264648 C-287.0609434 429.27485693 -287.77087128 422.33677993 -288.47756064 415.39836532 C-288.91763105 411.07911726 -289.36110639 406.76023806 -289.80727077 402.44161546 C-290.14480106 399.16412632 -290.47702984 395.88610382 -290.81005859 392.6081543 C-290.93154266 391.44234833 -291.05302673 390.27654236 -291.17819214 389.07540894 C-291.28731934 387.99141312 -291.39644653 386.9074173 -291.50888062 385.79057312 C-291.60432852 384.85951594 -291.69977642 383.92845877 -291.79811668 382.96918774 C-292.04619452 379.32059664 -292 375.65701512 -292 372 C-40.21 372 211.58 372 471 372 C471.66 363.42 472.32 354.84 473 346 C473.42099643 340.99321407 473.84755104 335.9884846 474.296875 330.984375 C474.41090668 329.70241745 474.52493835 328.4204599 474.64242554 327.09965515 C474.94628944 323.68799451 475.25253874 320.27655273 475.55966949 316.86518478 C475.75357938 314.71022157 475.94688018 312.55520437 476.14007568 310.400177 C478.47654868 284.3577736 480.95872227 258.33100853 483.5078125 232.30859375 C485.36955003 213.20872627 487.18057669 194.10394471 489 175 C327.63 175 166.26 175 0 175 C0 117.25 0 59.5 0 0 Z " fill="#FF6520" transform="translate(1030,278)"/>
<path d="M0 0 C227.7 0 455.4 0 690 0 C688.68 12.87 687.36 25.74 686 39 C685.07648001 48.12134131 684.15331603 57.24270349 683.23234367 66.36429977 C678.71288554 111.11426825 674.0237193 155.84458483 669.12231445 200.55444336 C667.02480122 219.69708459 664.9917358 238.84608111 663 258 C662.15518066 258.21615967 661.31036133 258.43231934 660.43994141 258.6550293 C644.920096 262.630551 629.4120603 266.62157378 614 271 C601.3991618 274.57585515 588.80594408 278.11156233 576.08398438 281.2331543 C570.18356356 282.68634027 564.33008315 284.26795269 558.48168945 285.91674805 C551.08969087 287.9934379 543.67062018 289.96598182 536.25 291.9375 C520.60124909 296.0987393 504.96960589 300.31221286 489.38452148 304.70654297 C459.95178761 313 459.95178761 313 455 313 C455 210.04 455 107.08 455 1 C304.85 1 154.7 1 0 1 C0 0.67 0 0.34 0 0 Z " fill="#FF6520" transform="translate(575,1057)"/>
<path d="M0 0 C96.36 0 192.72 0 292 0 C292 67.65 292 135.3 292 205 C202.57 205 113.14 205 21 205 C19.53602298 199.87608045 18.56789795 195.43576614 18.10546875 190.22338867 C18.03325639 189.47072409 17.96104403 188.7180595 17.88664341 187.9425869 C17.64750144 185.43491634 17.41762373 182.92648163 17.1875 180.41796875 C17.01644307 178.60955147 16.84470771 176.80119825 16.67234802 174.99290466 C16.30231966 171.09993918 15.9360312 167.2066477 15.57272339 163.31304932 C14.5963848 152.85437993 13.5965126 142.39794467 12.59765625 131.94140625 C12.49412401 130.8553434 12.39059177 129.76928055 12.2839222 128.6503067 C10.64951649 111.51912071 8.94188727 94.3962419 7.18359375 77.27734375 C7.06804768 76.15163404 6.9525016 75.02592434 6.83345413 73.86610222 C5.70492769 62.87810397 4.56969224 51.89081304 3.42707729 40.90427113 C3.00520176 36.84158058 2.58600448 32.77861643 2.16734505 28.71559334 C1.87919197 25.92985263 1.58705752 23.14454863 1.29478455 20.35923767 C1.12135121 18.67782833 0.94812599 16.9963975 0.77514648 15.31494141 C0.69575836 14.56963763 0.61637024 13.82433386 0.53457642 13.05644512 C0.08565988 8.64015955 0 4.47431144 0 0 Z " fill="#FF4E1D" transform="translate(738,651)"/>
</svg>
