<?xml version="1.0" encoding="UTF-8"?>
<svg version="1.1" xmlns="http://www.w3.org/2000/svg" width="1024" height="1024">
<path d="M0 0 C4.09221318 3.72213477 6.63020718 7.36193339 9.0625 12.3125 C9.40611572 13.00601563 9.74973145 13.69953125 10.10375977 14.4140625 C21.42642695 38.26822255 20.09324127 67.00754488 11.5378418 91.53320312 C-0.97062356 125.29062633 -26.73681673 154.23503947 -53.9140625 177.19921875 C-56.84294598 179.72771179 -59.66529405 182.36685711 -62.5 185 C-65.9625809 188.21188965 -69.42649874 191.41104128 -73 194.5 C-113.78151479 229.51655397 -113.78151479 229.51655397 -133 278 C-134.73822844 306.51434318 -124.87616247 335.18241703 -108 358 C-106.84371094 359.58167969 -106.84371094 359.58167969 -105.6640625 361.1953125 C-100.66724526 367.91513584 -95.27445762 374.15824994 -89.55078125 380.265625 C-86.77285107 383.24349808 -84.09288043 386.2920265 -81.4375 389.37890625 C-80.01449184 390.9836573 -78.53215479 392.4997651 -77 394 C-77.33 394.99 -77.66 395.98 -78 397 C-82.44406081 395.41951183 -86.33617484 393.12180752 -90.3125 390.625 C-91.00964111 390.18728271 -91.70678223 389.74956543 -92.42504883 389.29858398 C-100.27421749 384.29149232 -107.69508103 378.76542077 -115 373 C-115.55751953 372.56107422 -116.11503906 372.12214844 -116.68945312 371.66992188 C-143.43005511 350.38791179 -167.01933319 322.93777841 -172 288 C-174.26418023 256.43378274 -165.18368292 233.2927692 -144.75 209.5 C-136.15599055 199.67845551 -126.98492983 190.40929374 -117 182 C-115.95224514 181.10128517 -114.90545989 180.20143934 -113.859375 179.30078125 C-110.24700575 176.19180399 -106.62508631 173.09413441 -103 170 C-102.42491699 169.50886719 -101.84983398 169.01773438 -101.25732422 168.51171875 C-95.91669944 163.95553181 -90.56866311 159.41892595 -85.0625 155.0625 C-75.81828087 147.7272497 -66.93979753 139.93008287 -58.2109375 131.9921875 C-56.25251225 130.2275287 -54.26023004 128.51737864 -52.25 126.8125 C-41.80133077 117.65144455 -32.40955145 107.70453487 -24.14160156 96.53857422 C-23.14996602 95.20211416 -22.13552246 93.88263588 -21.1171875 92.56640625 C-2.76713277 67.94319327 3.49726861 40.01701138 -0.51953125 9.8359375 C-0.96717861 6.87953261 -1.4477034 3.93843242 -2 1 C-1.34 0.67 -0.68 0.34 0 0 Z " fill="#F19010" transform="translate(580,152)"/>
<path d="M0 0 C1.66235352 1.51806641 1.66235352 1.51806641 3 3 C2.28046143 3.235979 1.56092285 3.47195801 0.81958008 3.71508789 C-18.28827792 9.79235694 -18.28827792 9.79235694 -36 19 C-37.18916016 19.76957031 -37.18916016 19.76957031 -38.40234375 20.5546875 C-43.78310676 24.31051846 -47.64144145 28.35658644 -49.125 34.9375 C-49.34628634 38.37003148 -48.69140325 39.91194625 -46.45703125 42.50390625 C-43.21881237 46.05524138 -39.92933818 48.08022327 -35.5625 50 C-34.46276855 50.4957251 -34.46276855 50.4957251 -33.34082031 51.00146484 C12.52441537 70.92590201 71.26592123 76.05832553 120.8515625 76.203125 C122.34430467 76.21010744 123.83704657 76.21714836 125.32978821 76.22424316 C130.09486241 76.24357627 134.85989086 76.24842252 139.625 76.25 C140.43767963 76.25058914 141.25035927 76.25117828 142.08766556 76.25178528 C169.1584823 76.26563295 196.03976095 75.65168901 223 73 C223.77531067 72.92503296 224.55062134 72.85006592 225.34942627 72.77282715 C296.12867 67.92931013 296.12867 67.92931013 356 35 C357.4641863 32.72187162 358.7117843 30.38558462 360 28 C360.99 27.67 361.98 27.34 363 27 C364.15147661 28.26572233 365.29599314 29.53777906 366.4375 30.8125 C367.07558594 31.52019531 367.71367188 32.22789062 368.37109375 32.95703125 C371.41459979 36.7741863 371.45047663 40.26999537 371 45 C366.80574941 57.21036504 357.49957538 63.11711711 346.37109375 68.60546875 C286.85035616 96.16157674 213.37666731 98.21153093 149 100 C147.70852051 100.03609375 146.41704102 100.0721875 145.08642578 100.109375 C137.38296249 100.28829126 129.70212087 100.21205446 122 100 C120.79682129 99.96712891 120.79682129 99.96712891 119.56933594 99.93359375 C-59.2309053 94.91371258 -59.2309053 94.91371258 -98.17578125 58.06640625 C-101.52905922 54.26793934 -103.13309557 50.8492311 -102.89453125 45.7421875 C-101.57703765 38.04593776 -97.86161395 33.15936131 -91.6875 28.5625 C-68.98015637 13.61377747 -41.82823031 6.7469081 -15.4375 1.625 C-14.57519775 1.45718018 -13.71289551 1.28936035 -12.82446289 1.11645508 C-4.22197315 -0.46981355 -4.22197315 -0.46981355 0 0 Z " fill="#00748F" transform="translate(354,735)"/>
<path d="M0 0 C0 0.66 0 1.32 0 2 C-1.25876953 2.62261719 -1.25876953 2.62261719 -2.54296875 3.2578125 C-22.14545963 13.20625715 -40.63751059 26.07777632 -56.79296875 40.98046875 C-58.71482152 42.73904907 -60.67647489 44.40819775 -62.6875 46.0625 C-80.89000243 61.68278697 -93.42266653 85.12559827 -95.3125 108.9375 C-94.9898304 127.97500642 -84.59863979 145.28282619 -75.21020508 161.12573242 C-55.80967234 193.89553071 -55.80967234 193.89553071 -60.0625 213.8125 C-65.95895685 235.05627678 -81.92345367 251.43330465 -99.0625 264.5 C-99.99074585 265.23077759 -99.99074585 265.23077759 -100.93774414 265.97631836 C-102.72265625 267.28125 -102.72265625 267.28125 -106 269 C-108.93359375 268.28125 -108.93359375 268.28125 -111 267 C-109.55020171 263.95016525 -107.86567882 261.07587033 -106.13085938 258.18066406 C-98.36887582 245.06191854 -95.50026959 232.09235815 -98.7734375 216.9140625 C-102.54105715 202.44906213 -111.15020704 189.81285452 -119.125 177.375 C-133.32723465 155.21011956 -141.71194971 133.57749929 -135.97265625 106.91796875 C-132.44869372 92.0021687 -125.02648523 78.49102801 -115 67 C-114.31164062 66.19046875 -113.62328125 65.3809375 -112.9140625 64.546875 C-98.53502809 48.03953586 -81.02985995 35.61593718 -62 25 C-61.18885742 24.54657227 -60.37771484 24.09314453 -59.54199219 23.62597656 C-42.64880485 14.28386299 -25.07954389 6.61587221 -6.8984375 0.12890625 C-5.86855713 -0.23932251 -5.86855713 -0.23932251 -4.81787109 -0.61499023 C-3 -1 -3 -1 0 0 Z " fill="#F19010" transform="translate(648,301)"/>
<path d="M0 0 C0.99 1.485 0.99 1.485 2 3 C0.5291394 3.30852905 0.5291394 3.30852905 -0.97143555 3.62329102 C-23.83171628 8.30092238 -23.83171628 8.30092238 -46.25 14.6875 C-47.04365967 14.94797119 -47.83731934 15.20844238 -48.6550293 15.47680664 C-54.582158 17.55780683 -61.43988664 20.07478746 -64.5 25.8125 C-64.665 26.534375 -64.83 27.25625 -65 28 C-27.65405319 60.65181671 72.45949298 49.43170998 118.96875 46.359375 C140.0027112 44.89727304 160.87450752 42.34798972 181.6875 39 C182.47281097 38.87582703 183.25812195 38.75165405 184.06723022 38.62371826 C194.54414983 36.97013074 194.54414983 36.97013074 204.80078125 34.3046875 C212.16120222 32.02618268 216.56676054 31.01511855 223.79296875 34.4296875 C229.09805202 37.27480854 234.10851903 40.49569927 239 44 C239 44.66 239 45.32 239 46 C186.0470135 68.44746167 122.1934898 71.24823536 65.375 71.1875 C64.31584381 71.18689575 63.25668762 71.1862915 62.16543579 71.18566895 C-77.80055759 70.97091081 -77.80055759 70.97091081 -111.625 39.5625 C-113.4890433 36.08860113 -113.55555562 33.88888932 -113 30 C-107.69093428 20.10583206 -93.12359284 16.10829709 -83 13 C-22.08002465 -4.49330917 -22.08002465 -4.49330917 0 0 Z " fill="#00748F" transform="translate(432,546)"/>
<path d="M0 0 C-0.763125 0.7425 -1.52625 1.485 -2.3125 2.25 C-5.50338284 5.37715949 -5.50338284 5.37715949 -8 9 C-7.98705203 11.99668927 -7.98705203 11.99668927 -7 15 C16.23112481 34.4770457 65.78678995 31.40558234 93.75 31.3125 C95.4713063 31.30976578 95.4713063 31.30976578 97.22738647 31.30697632 C132.44952457 31.21342118 168.70441015 29.05015279 202.8203125 19.6015625 C208.6847853 18.49206765 212.78823015 20.14346899 217.8359375 23.08984375 C218.89941406 23.70923828 219.96289062 24.32863281 221.05859375 24.96679688 C222.70021484 25.94229492 222.70021484 25.94229492 224.375 26.9375 C225.49261719 27.58396484 226.61023438 28.23042969 227.76171875 28.89648438 C233.86701139 32.48585972 233.86701139 32.48585972 236 34 C236 34.66 236 35.32 236 36 C163.63222027 70.82545031 54.78175049 66.42116164 -28.76171875 43.2109375 C-48.50825036 35.82683038 -48.50825036 35.82683038 -54.125 28.0625 C-55.25837852 24.09567519 -55.26931838 21.94899052 -54 18 C-43.81893835 4.95551476 -20.52413016 2.18849651 -5.3125 -0.7590332 C-3 -1 -3 -1 0 0 Z " fill="#00748F" transform="translate(404,632)"/>
<path d="M0 0 C-0.5259375 0.8353125 -0.5259375 0.8353125 -1.0625 1.6875 C-2.25292605 4.62388427 -1.92721701 5.999358 -1 9 C5.38288824 15.26405788 16.53034603 16.49334771 25 18 C25.85013672 18.15243164 26.70027344 18.30486328 27.57617188 18.46191406 C63.39401378 24.48357739 102.2524927 22.62043633 137.80078125 15.90234375 C138.66993164 15.7528125 139.53908203 15.60328125 140.43457031 15.44921875 C142.12373663 15.15343782 143.80655347 14.81829516 145.47949219 14.44140625 C153.26770726 13.03266921 158.10664884 16.0832783 164.625 20.125 C165.60984375 20.70765625 166.5946875 21.2903125 167.609375 21.890625 C170.42494929 23.56495318 173.21284817 25.2789158 176 27 C176.82209961 27.48694336 177.64419922 27.97388672 178.49121094 28.47558594 C180.361488 29.59544827 182.18686421 30.78980723 184 32 C184 32.66 184 33.32 184 34 C152.64865602 51.64686428 113.15310968 54.58561801 77.94775391 54.39111328 C74.49992357 54.37499964 71.05326473 54.39110765 67.60546875 54.41015625 C34.56638114 54.44188425 -10.81870388 52.91401583 -38.12890625 31.31640625 C-41.11924157 28.31219467 -42.39770218 25.74195334 -42.75 21.5 C-42.4020271 17.23008257 -41.0737061 14.6362061 -38.05859375 11.62109375 C-30.94448916 6.01890513 -22.68065886 3.40250262 -14.0625 1.0625 C-13.24563721 0.83868652 -12.42877441 0.61487305 -11.5871582 0.38427734 C-7.40978451 -0.67419194 -4.22757903 -1.37503075 0 0 Z " fill="#00748F" transform="translate(424,714)"/>
<path d="M0 0 C-0.59366804 10.88391402 -5.93795357 17.98270536 -13.796875 25.30078125 C-19.29639414 30.11714095 -25.56940005 33.59036871 -32 37 C-32.59361328 37.32532715 -33.18722656 37.6506543 -33.79882812 37.98583984 C-104.90745153 76.48674928 -202.25416287 77.60555765 -412 56 C-412.66 55.67 -413.32 55.34 -414 55 C-414 54.34 -414 53.68 -414 53 C-410.7548111 50.83654074 -410.51158816 50.77043805 -406.94140625 51.3203125 C-406.09932617 51.44156494 -405.25724609 51.56281738 -404.38964844 51.68774414 C-403.45668945 51.83203857 -402.52373047 51.97633301 -401.5625 52.125 C-399.47573027 52.42129693 -397.38845142 52.71402174 -395.30078125 53.00390625 C-393.56562256 53.24584717 -393.56562256 53.24584717 -391.79541016 53.49267578 C-384.62557209 54.45105244 -377.43897432 55.26222543 -370.25 56.0625 C-369.09189819 56.19143143 -369.09189819 56.19143143 -367.91040039 56.32296753 C-353.63228257 57.90084615 -339.34337262 59.17878466 -325 60 C-323.93401581 60.06355179 -323.93401581 60.06355179 -322.84649658 60.12838745 C-307.4810478 61.02713787 -292.13918641 61.20139171 -276.75 61.1875 C-274.88199738 61.18659363 -274.88199738 61.18659363 -272.97625732 61.18566895 C-191.3868099 61.07894972 -80.18431633 59.74019198 -6 2.5 C-3 0 -3 0 0 0 Z " fill="#00748F" transform="translate(755,797)"/>
<path d="M0 0 C10.81484386 9.10723693 16.53169675 19.86995907 18.16015625 33.8125 C19.26651212 52.196839 11.78353937 66.62684786 -0.02734375 80.125 C-12.25525367 93.32043814 -26.82956311 102.70694252 -42.65234375 111 C-43.80404053 111.60545654 -43.80404053 111.60545654 -44.97900391 112.22314453 C-55.72789014 117.79236905 -66.7001167 122.32343451 -78.15234375 126.25 C-79.89801636 126.86101562 -79.89801636 126.86101562 -81.67895508 127.484375 C-82.77361084 127.8453125 -83.8682666 128.20625 -84.99609375 128.578125 C-86.45305664 129.06394043 -86.45305664 129.06394043 -87.93945312 129.55957031 C-91.15998428 130.08241392 -92.78040269 129.45687638 -95.65234375 128 C-92.24390501 124.14469654 -88.39422826 121.97264644 -83.96484375 119.5 C-57.74533443 104.45541464 -29.0983747 84.18302078 -19.65234375 54 C-16.14379229 40.98462352 -15.03887724 28.24194864 -21.65234375 16 C-27.84200637 6.08046275 -36.57879003 0.4329777 -47.65234375 -3 C-52.15737146 -3.95429748 -56.42860095 -4.10588437 -61.02734375 -4.0625 C-62.27257812 -4.05347656 -63.5178125 -4.04445313 -64.80078125 -4.03515625 C-65.74179687 -4.02355469 -66.6828125 -4.01195312 -67.65234375 -4 C-66.97265625 -6.38671875 -66.97265625 -6.38671875 -65.65234375 -9 C-46.72200511 -18.86937584 -16.02837951 -12.08620075 0 0 Z " fill="#00748F" transform="translate(754.65234375,552)"/>
</svg>
