<?xml version="1.0" encoding="UTF-8"?>
<svg version="1.1" xmlns="http://www.w3.org/2000/svg" width="4096" height="4096">
<path d="M0 0 C0.90047425 -0.00148275 1.80094849 -0.00296551 2.72870984 -0.0044932 C5.73994394 -0.00823708 8.75112719 -0.00488674 11.76236116 -0.00156133 C13.95807769 -0.00280461 16.15379401 -0.00448564 18.34950991 -0.00656369 C24.40977729 -0.01102108 30.47002941 -0.00923254 36.5302972 -0.00646191 C42.45545027 -0.00474056 48.38060051 -0.0077444 54.30575274 -0.01060009 C66.62264025 -0.01636643 78.93952412 -0.01737375 91.2564127 -0.01583035 C103.80831113 -0.01427656 116.36020667 -0.01490972 128.91210481 -0.01817156 C129.70763761 -0.01837686 130.5031704 -0.01858216 131.32281025 -0.01879368 C135.38463422 -0.01985119 139.44645817 -0.02094268 143.50828213 -0.02204513 C173.1892738 -0.03002238 202.87026441 -0.03301553 232.55125706 -0.03349106 C262.64223374 -0.03398543 292.73320907 -0.03662918 322.8241853 -0.04189865 C324.74191412 -0.04223219 326.65964293 -0.04256566 328.57737175 -0.04289906 C336.30953672 -0.04424716 344.04170169 -0.04561045 351.77386665 -0.04699116 C436.84295857 -0.06216017 521.91205015 -0.06893436 606.98114321 -0.07341313 C608.05725901 -0.07346982 609.13337481 -0.07352651 610.24210017 -0.07358491 C615.68531008 -0.07387144 621.12851998 -0.07415647 626.57172989 -0.07443903 C672.17156608 -0.07681394 717.77140212 -0.08052357 763.3712382 -0.08447613 C785.20719676 -0.0863687 807.04315533 -0.0881972 828.8791139 -0.09001033 C829.965105 -0.09010052 831.0510961 -0.09019071 832.16999602 -0.09028363 C884.43792067 -0.09461991 936.70584535 -0.09854823 988.97377007 -0.10201065 C990.08874636 -0.10208452 991.20372265 -0.1021584 992.3524861 -0.10223451 C1063.41192472 -0.10692965 1134.47136328 -0.10975257 1205.53080202 -0.11139743 C1211.35701796 -0.11153301 1217.18323389 -0.11167204 1223.00944983 -0.11181097 C1232.3503226 -0.11203345 1241.69119537 -0.11225482 1251.03206813 -0.11247485 C1252.76831216 -0.11251576 1252.76831216 -0.11251576 1254.53963181 -0.11255749 C1256.87902604 -0.1126126 1259.21842026 -0.11266771 1261.55781448 -0.11272282 C1277.96806279 -0.11310944 1294.3783111 -0.11349738 1310.78855942 -0.11389195 C1316.66049504 -0.11403306 1322.53243065 -0.11417313 1328.40436627 -0.11431085 C1439.30668863 -0.11691509 1550.20900958 -0.12224536 1661.11133092 -0.13819306 C1662.27882597 -0.13836085 1663.44632102 -0.13852864 1664.64919471 -0.13870152 C1701.12690958 -0.14395222 1737.6046244 -0.14952657 1774.08233922 -0.15516083 C1811.51096208 -0.16094179 1848.93958495 -0.16667233 1886.36820786 -0.17211716 C1887.52065107 -0.17228497 1888.67309428 -0.17245277 1889.86046001 -0.17262567 C1962.03425186 -0.18311849 2034.20804332 -0.18998035 2106.38183587 -0.19298355 C2108.05387975 -0.19305377 2108.05387975 -0.19305377 2109.75970229 -0.19312541 C2158.71435166 -0.19517605 2207.66900101 -0.19642015 2256.62365042 -0.19677146 C2276.31823523 -0.19691473 2296.01282004 -0.19715339 2315.70740485 -0.19743552 C2318.97287541 -0.19748105 2322.23834598 -0.1975227 2325.50381654 -0.19756363 C2375.45359902 -0.19820975 2425.40337991 -0.20116783 2475.3531615 -0.21102421 C2476.43036854 -0.21123658 2477.50757557 -0.21144895 2478.61742524 -0.21166776 C2495.94569453 -0.21509655 2513.27396379 -0.21870951 2530.60223304 -0.22234416 C2579.79547454 -0.23265753 2628.98871406 -0.24143891 2678.18195682 -0.23949949 C2679.67931529 -0.23944139 2679.67931529 -0.23944139 2681.20692343 -0.2393821 C2702.98569056 -0.23850552 2724.76445754 -0.23679342 2746.54322454 -0.23426248 C2755.22932222 -0.23326573 2763.91541991 -0.23237908 2772.60151761 -0.23152725 C2774.02277391 -0.23138342 2774.02277391 -0.23138342 2775.47274246 -0.23123669 C2805.51947788 -0.22824825 2835.5662019 -0.23447838 2865.61293498 -0.24604612 C2895.20298095 -0.25739958 2924.79301164 -0.25964001 2954.38305824 -0.24864061 C2958.43833601 -0.24713452 2962.4936138 -0.24573321 2966.54889163 -0.24439479 C2967.73971486 -0.24399573 2967.73971486 -0.24399573 2968.95459513 -0.2435886 C2981.4569666 -0.23967164 2993.95931186 -0.24574747 3006.46167878 -0.25613465 C3018.70310437 -0.26609985 3030.94449064 -0.26536605 3043.18591474 -0.2532837 C3049.69905586 -0.24714411 3056.21212209 -0.24594519 3062.72525897 -0.25796856 C3068.64456688 -0.26880782 3074.56370194 -0.265631 3080.48300182 -0.25167589 C3082.59633866 -0.2490698 3084.70968948 -0.25137321 3086.82301233 -0.25948914 C3105.17393479 -0.32519349 3123.3362251 1.31072811 3141.25445836 5.43858917 C3142.19756871 5.65168732 3143.14067906 5.86478546 3144.11236851 6.08434112 C3201.27690093 19.32814483 3256.41464832 51.21416305 3292.56695836 98.12608917 C3293.581809 99.40144532 3294.59749615 100.6761361 3295.61383336 101.95030792 C3303.45200422 111.87221991 3310.31395583 122.13943966 3316.56695836 133.12608917 C3316.99605504 133.87584015 3317.42515172 134.62559112 3317.86725133 135.39806183 C3332.4482517 161.1646384 3342.11471433 189.87756417 3346.56695836 219.12608917 C3346.73497325 220.19782578 3346.90298815 221.26956238 3347.0760944 222.37377585 C3348.72529843 233.99058362 3348.84682393 245.43955457 3348.81880735 257.15760203 C3348.82091898 259.3710109 3348.82390638 261.58441907 3348.8276827 263.79782573 C3348.83552492 269.87930234 3348.83095298 275.96071553 3348.82434688 282.04219126 C3348.81986923 287.99651835 3348.82488656 293.95083584 3348.8295819 299.90516112 C3348.83899961 312.27607519 3348.83894524 324.64697309 3348.83376106 337.01788893 C3348.82852009 349.61905126 3348.82768865 362.22020272 3348.83211799 374.82136548 C3348.83239627 375.62095585 3348.83267455 376.42054623 3348.83296127 377.24436661 C3348.83440133 381.32712894 3348.83591042 385.40989125 3348.83744241 389.49265354 C3348.84847439 419.30254875 3348.84961048 449.1124381 3348.84574406 478.92233475 C3348.84185353 509.1381834 3348.84230294 539.35402738 3348.84805386 569.56987579 C3348.84823311 570.52273675 3348.84841236 571.4755977 3348.84859705 572.45733323 C3348.8502399 581.18968349 3348.85192549 589.92203375 3348.85366268 598.65438399 C3348.85801229 620.55220007 3348.86164766 642.45001623 3348.86479502 664.34783252 C3348.86493947 665.35129899 3348.86508392 666.35476546 3348.86523275 667.38864001 C3348.8722844 716.86195098 3348.8716425 766.33526151 3348.87011426 815.80857284 C3348.87006465 817.41717327 3348.87006465 817.41717327 3348.87001404 819.05827068 C3348.86987972 823.39989178 3348.86974457 827.74151288 3348.86960866 832.08313397 C3348.86923349 844.07607497 3348.86887582 856.06901596 3348.86854093 868.06195696 C3348.86851022 869.1447356 3348.8684795 870.22751424 3348.86844785 871.34310435 C3348.867074 920.41572618 3348.86960376 969.48834752 3348.873067 1018.56096921 C3348.87353023 1025.12512624 3348.87398209 1031.68928327 3348.87443112 1038.2534403 C3348.8745054 1039.33852552 3348.87457968 1040.42361074 3348.87465621 1041.54157733 C3348.87480636 1043.73521546 3348.87495648 1045.92885358 3348.87510657 1048.12249171 C3348.87548264 1053.61522966 3348.87586011 1059.1079676 3348.87623766 1064.60070555 C3348.87631246 1065.68975544 3348.87638726 1066.77880534 3348.87646433 1067.90085675 C3348.8768428 1073.40801149 3348.87722273 1078.91516624 3348.87760527 1084.42232098 C3348.88117347 1135.81881309 3348.88403779 1187.21530522 3348.88619797 1238.61179741 C3348.88624521 1239.73166158 3348.88629245 1240.85152575 3348.88634112 1242.0053252 C3348.88933602 1313.3688999 3348.8892107 1384.73247422 3348.8867772 1456.09604893 C3348.88665761 1459.60530842 3348.88653923 1463.11456792 3348.88642111 1466.62382742 C3348.88554968 1492.45542684 3348.88461908 1518.28702625 3348.88367048 1544.11862567 C3348.88358409 1546.47445513 3348.88349772 1548.83028459 3348.88341136 1551.18611405 C3348.88332492 1553.5429082 3348.88323848 1555.89970235 3348.88315203 1558.25649651 C3348.88310924 1559.42345142 3348.88306645 1560.59040634 3348.88302236 1561.79272352 C3348.88280597 1567.68909598 3348.88258853 1573.58546844 3348.88236913 1579.4818409 C3348.87823036 1690.85422457 3348.87715351 1802.22660635 3348.88952916 1913.59898956 C3348.88965944 1914.77158223 3348.88978972 1915.94417489 3348.88992395 1917.15230067 C3348.89387585 1952.61070121 3348.89823542 1988.0691017 3348.90269511 2023.52750218 C3348.90757116 2062.29974247 3348.91240506 2101.07198277 3348.91697686 2139.8442231 C3348.91711363 2141.00173247 3348.9172504 2142.15924184 3348.91739131 2143.35182726 C3348.92594558 2215.84109222 3348.93084965 2288.33035665 3348.93168442 2360.81962211 C3348.93170433 2362.49892312 3348.93170433 2362.49892312 3348.93172464 2364.21214939 C3348.93229996 2413.37869448 3348.9320152 2462.54523953 3348.93080593 2511.7117846 C3348.93034671 2530.39678223 3348.92995448 2549.08177986 3348.92959517 2567.76677749 C3348.9295109 2572.14086325 3348.92942163 2576.51494901 3348.92932835 2580.88903477 C3348.92827274 2631.05411326 3348.92935308 2681.21919036 3348.9370033 2731.38426836 C3348.93716795 2732.46612666 3348.93733259 2733.54798495 3348.93750222 2734.66262683 C3348.94016051 2752.06564145 3348.94297961 2769.46865603 3348.94580625 2786.87167062 C3348.95382038 2836.2745832 3348.96016979 2885.67749373 3348.9557374 2935.08040698 C3348.955648 2936.08283368 3348.9555586 2937.08526038 3348.95546649 2938.11806364 C3348.95348297 2959.98777581 3348.95064758 2981.85748779 3348.94697597 3003.72719975 C3348.94552376 3012.44943188 3348.94417953 3021.17166402 3348.94286816 3029.89389618 C3348.94272209 3030.84534182 3348.94257603 3031.79678746 3348.94242553 3032.77706479 C3348.93784378 3062.95161378 3348.94246249 3093.12615192 3348.95240275 3123.30069937 C3348.96215179 3153.01497782 3348.96277924 3182.72924055 3348.95014745 3212.44351842 C3348.94841772 3216.51524419 3348.9467924 3220.58696999 3348.9452296 3224.65869582 C3348.9449196 3225.45580138 3348.94460959 3226.25290694 3348.94429019 3227.07416721 C3348.93967919 3239.63032875 3348.94505519 3252.1864648 3348.95473156 3264.74262262 C3348.96399906 3277.03482581 3348.96257909 3289.32698928 3348.94980088 3301.61918975 C3348.94329019 3308.16008611 3348.94172942 3314.70090822 3348.95336808 3321.2418014 C3348.96385526 3327.18504148 3348.96035913 3333.12810863 3348.94605969 3339.07133926 C3348.94333079 3341.19444314 3348.94552164 3343.31756118 3348.95350482 3345.4406518 C3349.19195364 3413.5283888 3319.98893778 3476.54629286 3272.44195836 3524.50108917 C3266.44451196 3530.45409958 3260.27394802 3535.97576157 3253.56695836 3541.12608917 C3252.29272934 3542.13941758 3251.01935647 3543.1538231 3249.74664586 3544.16905792 C3217.93128497 3569.31255377 3180.70462671 3585.91637461 3141.25445836 3594.81358917 C3140.42752476 3595.00404815 3139.60059117 3595.19450714 3138.74859898 3595.39073761 C3120.54049495 3599.29831948 3102.32955574 3600.57131496 3083.7569751 3600.50213666 C3081.54447383 3600.50511926 3079.33197402 3600.50941528 3077.1194775 3600.514885 C3071.07317909 3600.52607296 3065.02702704 3600.51878295 3058.98073266 3600.50831515 C3053.0508202 3600.50105958 3047.12092787 3600.50811929 3041.19101829 3600.51464699 C3028.87867448 3600.52769715 3016.56636856 3600.52661427 3004.25402265 3600.51777506 C2991.71938322 3600.50883675 2979.1847679 3600.50655492 2966.65012627 3600.51214769 C2965.45540384 3600.5126746 2965.45540384 3600.5126746 2964.23654561 3600.51321215 C2960.16939294 3600.51503481 2956.10224033 3600.51696149 2952.03508773 3600.51892298 C2922.36771696 3600.53300246 2892.70036065 3600.53229549 2863.03298848 3600.52408035 C2832.96843302 3600.5158001 2802.90388763 3600.51406107 2772.83933156 3600.52029236 C2771.89068671 3600.5204859 2770.94204186 3600.52067944 2769.96465019 3600.52087885 C2761.27074619 3600.52265349 2752.5768422 3600.5244952 2743.88293822 3600.52641748 C2722.08310287 3600.53122975 2700.28326741 3600.53499783 2678.48343175 3600.53805859 C2677.48453575 3600.5381993 2676.48563976 3600.53834 2675.45647419 3600.53848497 C2626.22687297 3600.5453199 2576.99727356 3600.54071344 2527.76767247 3600.53497513 C2525.61138202 3600.53472422 2523.45509157 3600.53447332 2521.29880112 3600.53422244 C2519.69580198 3600.53403589 2519.69580198 3600.53403589 2518.06041902 3600.53384557 C2503.96736997 3600.532206 2489.87432092 3600.53059617 2475.78127186 3600.52906568 C2474.70400219 3600.5289482 2473.62673252 3600.52883072 2472.51681831 3600.52870967 C2422.59291665 3600.52330571 2372.66901589 3600.52459149 2322.7451141 3600.52735705 C2317.29863132 3600.52765644 2311.85214853 3600.52794294 2306.40566574 3600.52823088 C2289.98927068 3600.52910265 2273.57287562 3600.52999347 2257.15648057 3600.53092367 C2207.09609685 3600.53375725 2157.03571312 3600.53555799 2106.97532933 3600.53646858 C2105.86069927 3600.53648919 2104.74606922 3600.53650979 2103.59766249 3600.53653102 C2031.41236325 3600.53784723 1959.22706503 3600.53454501 1887.0417661 3600.52791984 C1885.88940209 3600.52781449 1884.73703809 3600.52770913 1883.54975397 3600.52760059 C1844.95130618 3600.52407154 1806.35285842 3600.52030334 1767.75441066 3600.5165107 C1651.03197818 3600.50504945 1534.30954932 3600.4987685 1325.85825864 3600.51685669 C1287.26955598 3600.52064632 1248.68085331 3600.52439188 1210.09215062 3600.52791984 C1208.36409102 3600.52807845 1208.36409102 3600.52807845 1206.60112112 3600.52824025 C1134.45360974 3600.53485628 1062.30609906 3600.53780232 990.15858738 3600.53646858 C989.04432748 3600.53644831 987.93006758 3600.53642804 986.78204222 3600.53640716 C936.74944499 3600.53548699 886.71684784 3600.53357207 836.68425068 3600.53073707 C820.27510059 3600.52980843 803.86595049 3600.52892542 787.45680039 3600.52805793 C782.01345917 3600.52776995 776.57011794 3600.52747789 771.12677672 3600.52717635 C721.20206564 3600.52441918 671.27735578 3600.52362108 621.35264485 3600.52906568 C619.73776499 3600.52924106 619.73776499 3600.52924106 618.09026129 3600.52941997 C604.00521272 3600.53095534 589.92016416 3600.53258327 575.8351156 3600.53422244 C574.76729304 3600.53434668 573.69947048 3600.53447092 572.59928967 3600.53459892 C570.44495792 3600.53484961 568.29062618 3600.5351005 566.13629444 3600.53535162 C516.97435725 3600.54106711 467.81242222 3600.54498352 418.65048497 3600.53805859 C417.65290459 3600.53791853 416.65532422 3600.53777847 415.62751414 3600.53763416 C393.86335412 3600.53454367 372.09919435 3600.53058494 350.33503465 3600.52577275 C341.65488484 3600.52386508 332.974735 3600.52206327 324.29458516 3600.52029236 C323.3477333 3600.52009611 322.40088144 3600.51989986 321.4253371 3600.51969767 C291.39954214 3600.51352351 261.37375757 3600.51652828 231.34796338 3600.52484267 C201.77893203 3600.53298981 172.20991699 3600.53199806 142.64088745 3600.51773757 C138.58852182 3600.51578424 134.53615615 3600.5139349 130.48379045 3600.51214769 C129.69047976 3600.51179373 128.89716908 3600.51143977 128.07981867 3600.51107508 C115.58656845 3600.50577223 103.09334323 3600.51044268 90.60009593 3600.51941176 C78.3676813 3600.52798761 66.13530716 3600.5258669 53.90289651 3600.51240134 C47.39459948 3600.5055252 40.88637667 3600.50358324 34.3780818 3600.51485089 C28.46317394 3600.5250028 22.54844037 3600.52114954 16.63354337 3600.50652677 C14.52180233 3600.50368001 12.41004677 3600.50573811 10.29831846 3600.51360378 C-8.04787609 3600.57716906 -26.20697242 3598.94037577 -44.12054164 3594.81358917 C-45.06365199 3594.60049103 -46.00676235 3594.38739288 -46.9784518 3594.16783722 C-80.15885586 3586.48064483 -112.80033861 3573.25881542 -140.43304164 3553.12608917 C-141.38799526 3552.44063019 -141.38799526 3552.44063019 -142.36224086 3551.74132355 C-162.37221823 3537.33219003 -181.43295646 3520.79701938 -196.43304164 3501.12608917 C-197.37292919 3499.92670064 -198.31304919 3498.72749424 -199.25335414 3497.52843292 C-222.88234221 3467.06268917 -239.25823443 3431.52356166 -247.24554164 3393.81358917 C-247.53787685 3392.43832062 -247.53787685 3392.43832062 -247.83611782 3391.03526886 C-251.04241493 3374.98823931 -251.72412976 3359.28066675 -251.68604131 3342.97728182 C-251.68827929 3340.76333483 -251.69139246 3338.54938857 -251.69529311 3336.33544388 C-251.70347377 3330.25713394 -251.69926035 3324.17888675 -251.69300138 3318.10057688 C-251.68886295 3312.1479114 -251.69422023 3306.19525603 -251.69925017 3300.24259289 C-251.70936217 3287.87621721 -251.710011 3275.50985718 -251.70552313 3263.14347891 C-251.70099127 3250.54786142 -251.7008647 3237.95225503 -251.70598855 3225.35663765 C-251.70631094 3224.55723891 -251.70663333 3223.75784017 -251.70696548 3222.93421722 C-251.70863057 3218.85239283 -251.71036428 3214.77056847 -251.71212054 3210.68874412 C-251.72478729 3180.88962426 -251.72754623 3151.09050974 -251.7252856 3121.29138763 C-251.72302146 3091.08724159 -251.72508597 3060.88310044 -251.73243053 3030.67895515 C-251.73289451 3028.75290551 -251.73335846 3026.82685587 -251.73382237 3024.90080623 C-251.73570145 3017.1348985 -251.73761404 3009.36899077 -251.73956475 3001.60308306 C-251.74505545 2979.71184062 -251.74981428 2957.82059805 -251.75406868 2935.92935534 C-251.75426378 2934.9261965 -251.75445888 2933.92303767 -251.7546599 2932.88948008 C-251.76567074 2875.83594139 -251.76627911 2818.78240243 -251.76710162 2761.72886287 C-251.76722811 2753.00735971 -251.76736116 2744.28585656 -251.76750272 2735.5643534 C-251.76753811 2733.37836825 -251.76757286 2731.19238309 -251.76760697 2729.00639794 C-251.76838252 2679.94710958 -251.77273965 2630.8878218 -251.77786747 2581.82853372 C-251.77901059 2570.87947912 -251.78011854 2559.93042451 -251.78122874 2548.9813699 C-251.78133898 2547.89452886 -251.78144923 2546.80768782 -251.78156281 2545.68791221 C-251.78223181 2539.09057627 -251.78289935 2532.49324032 -251.78356594 2525.89590438 C-251.7839001 2522.59098501 -251.78423512 2519.28606565 -251.78457021 2515.98114628 C-251.789774 2464.59515131 -251.79423459 2413.2091563 -251.7979346 2361.8231612 C-251.79801534 2360.70352467 -251.79809608 2359.58388815 -251.79817927 2358.43032324 C-251.80330562 2287.08158408 -251.80510426 2215.73284524 -251.80457861 2144.38410591 C-251.8045531 2140.87561392 -251.80452917 2137.36712194 -251.80450578 2133.85862995 C-251.8043411 2109.21007398 -251.80413568 2084.56151801 -251.80392002 2059.91296204 C-251.80385848 2052.8456975 -251.80379836 2045.77843296 -251.80373839 2038.71116843 C-251.80368821 2032.81614736 -251.80363663 2026.92112629 -251.80358217 2021.02610522 C-251.80255935 1909.68636456 -251.80539442 1798.34662679 -251.82427699 1687.00688751 C-251.82447571 1685.83474296 -251.82467443 1684.66259842 -251.82487917 1683.45493434 C-251.83110187 1646.83156596 -251.83783485 1610.20819768 -251.84466274 1573.5848294 C-251.85166562 1536.00619676 -251.85860657 1498.42756411 -251.86519153 1460.84893139 C-251.86539458 1459.69185074 -251.86559763 1458.53477009 -251.86580684 1457.34262639 C-251.87850598 1384.87299823 -251.88634904 1312.40337088 -251.8889075 1239.93374164 C-251.88894756 1238.81440188 -251.88898761 1237.69506212 -251.88902888 1236.54180298 C-251.89077956 1187.38225338 -251.89141906 1138.22270382 -251.89084711 1089.0631542 C-251.89061855 1069.2859917 -251.89050641 1049.50882919 -251.89044047 1029.73166668 C-251.89042767 1026.45254366 -251.89040951 1023.17342063 -251.89039017 1019.89429761 C-251.89011722 969.7439778 -251.89280682 919.59366064 -251.90448053 869.44334204 C-251.90473187 868.36205167 -251.90498321 867.2807613 -251.90524217 866.16670456 C-251.90930014 848.7731799 -251.91358821 831.37965531 -251.91789579 813.98613072 C-251.930116 764.60187905 -251.94020011 715.21763094 -251.93595345 665.83337756 C-251.93582531 664.32984927 -251.93582531 664.32984927 -251.93569458 662.79594668 C-251.93378772 640.92619225 -251.93075591 619.05643812 -251.92662115 597.186684 C-251.92498854 588.46400098 -251.92350127 579.74131793 -251.92205913 571.01863487 C-251.92181717 569.59140455 -251.92181717 569.59140455 -251.92157033 568.1353413 C-251.91652601 537.97549388 -251.92375037 507.81566622 -251.93809477 477.65582224 C-251.95217202 447.94811953 -251.95406356 418.24044433 -251.9383209 388.53274156 C-251.93616377 384.4588573 -251.93414599 380.38497299 -251.93221178 376.31108861 C-251.93182775 375.51358284 -251.93144372 374.71607707 -251.93104805 373.89440445 C-251.92536948 361.3487036 -251.93298526 348.80304871 -251.94637299 336.25735521 C-251.95921544 323.96532067 -251.95773165 311.67335621 -251.94118523 299.38132537 C-251.93276979 292.84464947 -251.93086592 286.30810564 -251.94668661 279.77143641 C-252.09897058 212.31348167 -238.7712918 151.60870011 -195.43304164 98.12608917 C-194.98767055 97.57630401 -194.54229946 97.02651886 -194.08343227 96.46007355 C-182.87070484 82.74860008 -170.49779192 69.92471456 -156.43304164 59.12608917 C-155.43144008 58.33073761 -154.42983852 57.53538605 -153.39788539 56.71593292 C-110.8278599 23.07567629 -54.75033158 -0.15504092 0 0 Z " fill="#00669C" transform="translate(499.4330416433513,247.87391082942486)"/>
<path d="M0 0 C1.08432312 0.09474609 1.08432312 0.09474609 2.19055176 0.19140625 C78.99026805 6.9858518 153.28560873 25.8249706 223 59 C223.85609863 59.40541016 224.71219727 59.81082031 225.59423828 60.22851562 C239.85793481 67.02790597 253.46303236 74.86216974 267 83 C267.75796875 83.45375 268.5159375 83.9075 269.296875 84.375 C291.04200545 97.45477771 311.58474356 112.68114222 331 129 C331.515625 129.43070801 332.03125 129.86141602 332.5625 130.30517578 C345.45186137 141.09317605 357.65047755 152.58399275 369.5625 164.4375 C370.52615479 165.39414551 370.52615479 165.39414551 371.50927734 166.37011719 C375.30144809 170.17516289 378.89705145 174.10163791 382.40795898 178.16723633 C384.46742474 180.53810114 386.60840566 182.82832469 388.75 185.125 C393.49875287 190.3328468 397.85233192 195.77699603 402.16015625 201.3515625 C404.03096799 203.77063768 405.93228548 206.15852474 407.87109375 208.5234375 C430.01778046 235.57886871 448.18506065 265.7730939 464.671875 296.52734375 C465.85578937 298.73151373 467.05008984 300.92951221 468.25 303.125 C476.15109503 317.64241314 482.82460682 332.6496289 489.13769531 347.91552734 C490.27114134 350.65543737 491.41756392 353.38987492 492.5625 356.125 C493.14257812 357.52878906 493.14257812 357.52878906 493.734375 358.9609375 C494.66747893 361.20153892 495.6180163 363.43489922 496.578125 365.6640625 C500.99864696 376.02158051 504.62580649 386.5659555 508.10546875 397.2734375 C509.35543457 401.11129189 510.6842214 404.90641227 512.0859375 408.69140625 C513.76755199 413.26716134 515.18322768 417.85381159 516.4375 422.5625 C516.86568661 424.13807487 517.29407752 425.71359424 517.72265625 427.2890625 C517.9355127 428.07700195 518.14836914 428.86494141 518.36767578 429.67675781 C519.15161513 432.5570539 519.9626239 435.42928291 520.7746582 438.30175781 C521.63001944 441.3447428 522.46491962 444.39319142 523.29785156 447.44238281 C523.77919686 449.1957115 524.26579554 450.94760398 524.75683594 452.69824219 C542.74509934 517.09930761 550.71678475 584.45990169 554.87756348 651.04180908 C554.98358601 652.73748261 555.09259391 654.43296898 555.20214844 656.12841797 C557.25402595 688.67313789 557.15387911 721.41674839 557.12226619 754.01297402 C557.11874193 758.85123147 557.12121937 763.68948716 557.12284368 768.52774513 C557.12489086 776.95746362 557.12332002 785.38717497 557.11920547 793.81689262 C557.1131048 806.35106249 557.11287568 818.88522797 557.11374746 831.41939905 C557.11505356 852.51627599 557.1117499 873.61314977 557.10573006 894.71002579 C557.09979337 915.56938823 557.09596016 936.42874936 557.09487724 957.28811264 C557.0948085 958.5897779 557.09473976 959.89144315 557.09466894 961.23255281 C557.09433056 967.84425881 557.0940292 974.45596481 557.09374207 981.06767081 C557.09313944 994.50456048 557.09221113 1007.94145013 557.09113979 1021.37833977 C557.09108648 1022.05028449 557.09103316 1022.72222921 557.09097823 1023.41453589 C557.08836374 1056.01203483 557.08205911 1088.60953292 557.07543945 1121.20703125 C557.07314756 1132.50327555 557.07087209 1143.79951985 557.06866455 1155.09576416 C557.0685276 1155.79646511 557.06839065 1156.49716606 557.06824955 1157.21910037 C557.06189298 1189.85781023 557.05818666 1222.49652023 557.05513173 1255.13523054 C557.05493117 1257.27361838 557.05472887 1259.41200622 557.05452599 1261.55039406 C557.0521887 1286.19605796 557.05001157 1310.84172188 557.04788104 1335.48738581 C557.03851106 1442.65825883 557.01843606 1549.82912737 557 1657 C379.13 1657 201.26 1657 18 1657 C17.95101562 1592.96582031 17.90203125 1528.93164062 17.8515625 1462.95703125 C17.8182964 1424.84906964 17.78489564 1386.74110908 17.74901867 1348.63314998 C17.727344 1325.59960074 17.7057797 1302.56605141 17.68449493 1279.5325018 C17.6826217 1277.50659456 17.68074511 1275.48068733 17.6788677 1273.45478009 C17.65016689 1242.47034358 17.6230973 1211.48590676 17.60089111 1180.50146484 C17.60041435 1179.83628 17.59993759 1179.17109516 17.59944638 1178.4857532 C17.5917708 1167.76252528 17.58423552 1157.03929726 17.57671889 1146.31606924 C17.54521511 1101.37721098 17.50739009 1056.4383626 17.46109388 1011.49951698 C17.45464418 1005.23600809 17.44826795 998.97249912 17.44193649 992.7089901 C17.44006404 990.86000201 17.44006404 990.86000201 17.43815375 988.97366062 C17.41830785 969.19040146 17.40522002 949.40714341 17.39470672 929.62387733 C17.38397235 909.6992175 17.36600571 889.77457431 17.34083296 869.8499274 C17.32612175 858.03558418 17.31677925 846.22126641 17.31543317 834.40691395 C17.31398058 826.48456835 17.30521043 818.56225121 17.29084408 810.63991859 C17.28289272 806.14537484 17.27778426 801.6508868 17.28172119 797.1563364 C17.30417531 767.56142027 16.65653461 737.86506076 13.25 708.4375 C13.12694489 707.33612198 13.12694489 707.33612198 13.00140381 706.2124939 C5.32615326 637.90276399 -12.26662431 568.21580296 -55 513 C-55.72574219 512.06027344 -56.45148438 511.12054687 -57.19921875 510.15234375 C-98.52774846 458.28160129 -157.07345203 432.90632456 -221.87744141 425.34326172 C-228.59002609 424.60534975 -235.24525477 424.1261079 -242 424 C-242.90041016 423.97953613 -243.80082031 423.95907227 -244.72851562 423.93798828 C-314.14696694 422.55919107 -381.1255271 442.31845796 -435 487 C-435.5460791 487.44456543 -436.0921582 487.88913086 -436.65478516 488.34716797 C-451.09466538 500.12187088 -464.58914305 513.25658224 -476 528 C-476.89889543 529.09009227 -477.8014893 530.17714145 -478.70703125 531.26171875 C-491.46938857 546.65424253 -502.26272097 563.55823479 -512 581 C-512.40138184 581.71236816 -512.80276367 582.42473633 -513.21630859 583.15869141 C-543.48056711 637.27478138 -548.32971695 694.48951933 -548.27947159 755.31869589 C-548.27773916 760.13906107 -548.28767599 764.95940611 -548.29602563 769.77976245 C-548.30905176 778.19821012 -548.31487759 786.61663786 -548.31578636 795.03509521 C-548.31717127 807.55272473 -548.33000771 820.07032489 -548.3450741 832.58794449 C-548.37010846 853.65194232 -548.38602913 874.71593764 -548.39665604 895.77994728 C-548.40719978 916.61935781 -548.42185534 937.45875885 -548.44193649 958.29816246 C-548.44380979 960.24576221 -548.44380979 960.24576221 -548.44572094 962.2327074 C-548.45208518 968.82730978 -548.45852224 975.4219121 -548.46498732 982.01651438 C-548.47809167 995.4217258 -548.49055492 1008.8269378 -548.50273705 1022.23215008 C-548.50365178 1023.2378828 -548.50365178 1023.2378828 -548.50458498 1024.26393336 C-548.53414401 1056.82414545 -548.55643986 1089.38436196 -548.578125 1121.94458008 C-548.58564773 1133.23386642 -548.59320271 1144.52315274 -548.60089111 1155.81243896 C-548.60136796 1156.51266801 -548.60184481 1157.21289706 -548.60233611 1157.93434517 C-548.6245744 1190.52526161 -548.65201479 1223.11617307 -548.68074135 1255.70708436 C-548.68262166 1257.84125263 -548.68449854 1259.97542091 -548.68637431 1262.10958918 C-548.70799358 1286.70517872 -548.72992783 1311.30076798 -548.75195378 1335.89635716 C-548.8475982 1442.93089725 -548.922182 1549.96544244 -549 1657 C-726.87 1657 -904.74 1657 -1088 1657 C-1088 1572.94225417 -1088 1572.94225417 -1087.83069842 1536.65698023 C-1087.80603617 1531.31721239 -1087.78288655 1525.97743799 -1087.75963688 1520.63766384 C-1087.75481172 1519.53307721 -1087.74998656 1518.42849058 -1087.74501519 1517.29043163 C-1087.56347033 1475.70482412 -1087.39290807 1434.11917305 -1087.22482967 1392.53350925 C-1087.22174154 1391.76952361 -1087.21865341 1391.00553797 -1087.2154717 1390.21840125 C-1087.18714783 1383.21094275 -1087.15882508 1376.20348424 -1087.13057145 1369.19602545 C-1087.06491036 1352.91155646 -1086.99884085 1336.6270896 -1086.93033409 1320.34263229 C-1086.76605005 1281.27924457 -1086.61057929 1242.21583429 -1086.47265625 1203.15234375 C-1086.46993339 1202.38136747 -1086.46721053 1201.6103912 -1086.46440516 1200.816052 C-1086.12989793 1105.93436572 -1085.94512925 1011.05291632 -1085.87053861 645.41917603 C-1085.87511578 609.45156876 -1085.87419422 573.48396465 -1085.86962891 537.51635742 C-1085.86423737 494.90661551 -1085.86216542 452.29687546 -1085.86524117 409.68713325 C-1085.86556157 405.13138227 -1085.86587442 400.57563128 -1085.86618423 396.01988029 C-1085.86626331 394.89964191 -1085.86634239 393.77940352 -1085.86642386 392.62521851 C-1085.86746683 377.13003377 -1085.86659114 361.63485028 -1085.86419737 346.1396657 C-1085.75966119 236.90800507 -1085.75966119 236.90800507 -1086.44580078 127.67944336 C-1086.45561009 126.75383691 -1086.46541939 125.82823046 -1086.47552595 124.87457533 C-1086.50392278 122.22860971 -1086.53326545 119.58265683 -1086.56313896 116.9367075 C-1086.57112287 116.21436971 -1086.57910677 115.49203192 -1086.58733261 114.74780511 C-1086.8957059 88.49583453 -1087.48532495 62.24842778 -1088 36 C-910.13 36 -732.26 36 -549 36 C-548.67 110.58 -548.34 185.16 -548 262 C-543.71 255.73 -539.42 249.46 -535 243 C-520.96507504 222.88809723 -506.37880539 203.25408376 -490.40039062 184.63867188 C-488.99203398 182.99067854 -487.59643142 181.33260323 -486.203125 179.671875 C-472.31030826 163.17963477 -457.45995781 146.65359193 -440.9765625 132.6953125 C-438.49139806 130.5637683 -436.09559854 128.34316401 -433.6875 126.125 C-428.28288918 121.20769016 -422.71930545 116.5447008 -417 112 C-416.3620752 111.48953125 -415.72415039 110.9790625 -415.06689453 110.453125 C-372.84609555 76.74736242 -325.20117673 50.16391984 -274.3918457 31.87329102 C-271.5464462 30.83440217 -268.74349422 29.7030518 -265.9375 28.5625 C-259.33610268 26.01213684 -252.6403435 24.13183837 -245.8125 22.30859375 C-242.64704893 21.46143798 -239.50740464 20.55969537 -236.375 19.59765625 C-200.44054436 8.65311478 -162.33616883 3.26504202 -125 0 C-123.8445166 -0.10441406 -122.6890332 -0.20882813 -121.49853516 -0.31640625 C-81.33538552 -3.78546605 -40.15607126 -3.54242074 0 0 Z " fill="#FEFEFE" transform="translate(2728,1604)"/>
<path d="M0 0 C177.87 0 355.74 0 539 0 C539 534.93 539 1069.86 539 1621 C361.13 1621 183.26 1621 0 1621 C0 1086.07 0 551.14 0 0 Z " fill="#FFFFFF" transform="translate(803,1640)"/>
<path d="M0 0 C1.70728775 0.00323273 1.70728775 0.00323273 3.44906616 0.00653076 C40.79264958 0.11966836 76.80229337 5.01683419 112.5 16.3125 C113.40411621 16.59786621 114.30823242 16.88323242 115.23974609 17.17724609 C151.31086762 28.8370635 185.04872538 48.48253209 213.00390625 74.0390625 C214.64162692 75.53069541 216.29495423 77.00540781 217.96484375 78.4609375 C244.8794909 102.01656866 265.62633015 134.56223087 279.5 167.3125 C279.98726562 168.45074219 280.47453125 169.58898438 280.9765625 170.76171875 C309.89001521 240.52469053 309.3635142 322.11931258 280.625 391.75 C269.196375 418.59539796 253.69976368 443.44979087 233.78125 464.84375 C231.88769392 466.89294082 230.0940214 468.9799028 228.3125 471.125 C179.46842405 526.91427089 101.33322006 553.24651018 29.5 559.3125 C28.24960938 559.42464844 26.99921875 559.53679688 25.7109375 559.65234375 C-27.00019441 563.57078838 -86.68646141 559.28785377 -134.9609375 536.48144531 C-137.60741721 535.26304677 -140.28652588 534.18468198 -143 533.125 C-170.42050976 521.75898559 -195.39486054 504.29841329 -217.22265625 484.3671875 C-219.1737616 482.60684202 -221.16013544 480.92065677 -223.1875 479.25 C-226.30332636 476.59792454 -228.92782948 473.66891122 -231.5703125 470.55078125 C-233.70876295 468.07035188 -235.94635003 465.70043455 -238.1875 463.3125 C-271.85104875 426.23676098 -291.89158841 378.20666124 -300.5 329.3125 C-300.66516113 328.42159668 -300.83032227 327.53069336 -301.00048828 326.61279297 C-306.46932731 295.94318174 -306.07829169 260.93051857 -300.5 230.3125 C-300.32839355 229.30541992 -300.15678711 228.29833984 -299.97998047 227.26074219 C-295.66151901 202.16812701 -288.37364537 178.14488793 -276.64306641 155.52050781 C-275.43287254 153.18283303 -274.23812008 150.83758427 -273.04296875 148.4921875 C-268.36660065 139.38234434 -263.51580161 130.62465599 -257.5 122.3125 C-257.06461914 121.70873535 -256.62923828 121.1049707 -256.18066406 120.48291016 C-241.40733491 100.09733826 -224.65843317 80.5644995 -204.5 65.3125 C-203.3028477 64.37568674 -202.10627509 63.43813242 -200.91015625 62.5 C-179.28069093 45.71287149 -154.38826699 31.78545286 -128.6875 22.3125 C-127.46417969 21.85875 -126.24085938 21.405 -124.98046875 20.9375 C-124.30226074 20.69193359 -123.62405273 20.44636719 -122.92529297 20.19335938 C-121.0615415 19.51645024 -119.20195406 18.82806757 -117.34423828 18.13476562 C-109.32151021 15.18577452 -101.31532518 12.7821799 -93 10.8125 C-91.14362915 10.37031128 -91.14362915 10.37031128 -89.24975586 9.91918945 C-80.23512294 7.82823948 -71.1877491 6.04921413 -62.0625 4.5 C-60.92941406 4.30535156 -59.79632812 4.11070312 -58.62890625 3.91015625 C-39.1508737 0.76711009 -19.70497892 -0.06750568 0 0 Z " fill="#FEFEFE" transform="translate(1075.5,858.6875)"/>
</svg>
