<?xml version="1.0" encoding="UTF-8"?>
<svg version="1.1" xmlns="http://www.w3.org/2000/svg" width="385" height="325">
<path d="M0 0 C2.98842071 1.14666412 5.77508104 2.48012395 8.61181641 3.96655273 C9.48887489 4.42282799 9.48887489 4.42282799 10.38365173 4.88832092 C12.28323117 5.87843794 14.17799231 6.87740773 16.07275391 7.87670898 C17.39661945 8.56928613 18.72075908 9.26133958 20.04516602 9.95288086 C23.28196126 11.64474554 26.51501684 13.34361148 29.74688721 15.04486084 C32.02886437 16.24476795 34.31433349 17.43794099 36.60009766 18.63061523 C43.31311816 22.14035748 50.00102049 25.6948808 56.67041016 29.28686523 C58.97104699 30.52541477 61.27183329 31.76368671 63.57275391 33.00170898 C64.15624603 33.31572662 64.73973816 33.62974426 65.34091187 33.95327759 C75.98426342 39.67530029 86.71490297 45.21806335 97.47003174 50.72647095 C106.51841584 55.36337035 115.49228336 60.09764821 124.37792969 65.04125977 C130.79804314 68.57657508 137.30278615 71.92394518 143.83837891 75.23999023 C144.76642334 75.71155548 145.69446777 76.18312073 146.65063477 76.66897583 C151.3659926 79.06331285 156.08603776 81.44772513 160.81298828 83.8190918 C162.56116956 84.70391744 164.30922212 85.58899746 166.05712891 86.47436523 C166.87377014 86.88012283 167.69041138 87.28588043 168.53179932 87.70393372 C169.28233582 88.08587387 170.03287231 88.46781403 170.80615234 88.86132812 C171.79249664 89.3566378 171.79249664 89.3566378 172.79876709 89.86195374 C174.44775391 90.93920898 174.44775391 90.93920898 176.44775391 93.93920898 C169.87808512 98.17616929 163.09606967 101.89171337 156.19775391 105.56420898 C153.89140236 106.79921035 151.58541722 108.03489618 149.27978516 109.27124023 C148.13590332 109.88435059 146.99202148 110.49746094 145.81347656 111.12915039 C140.82404255 113.8124279 135.85114003 116.52514259 130.88525391 119.25170898 C130.04124023 119.71335449 129.19722656 120.175 128.32763672 120.65063477 C127.56161133 121.07199707 126.79558594 121.49335938 126.00634766 121.92749023 C125.33917725 122.29398682 124.67200684 122.6604834 123.98461914 123.03808594 C122.45438528 123.84846854 122.45438528 123.84846854 121.44775391 124.93920898 C121.34921428 126.42158971 121.31976685 127.9086355 121.31835938 129.39428711 C121.31526764 130.34989532 121.3121759 131.30550354 121.30899048 132.29006958 C121.31193619 133.86436234 121.31193619 133.86436234 121.31494141 135.47045898 C121.31269058 137.10070511 121.31269058 137.10070511 121.31039429 138.7638855 C121.30802561 142.32236335 121.31431152 145.88074112 121.32275391 149.43920898 C121.32607727 151.24146942 121.32607727 151.24146942 121.32946777 153.08013916 C121.34749794 161.3666637 121.38973373 169.65287346 121.44775391 177.93920898 C121.45711975 179.38668518 121.45711975 179.38668518 121.4666748 180.86340332 C121.5006412 185.66218494 121.5560849 190.45946495 121.6572876 195.25732422 C121.69676057 197.26371824 121.71872378 199.27043262 121.74023438 201.27709961 C121.92208783 207.99029698 122.33571961 212.5229847 126.44775391 217.93920898 C129.29372145 220.1527393 132.27183326 221.27386703 135.61962891 222.51733398 C136.33731445 222.78449219 137.055 223.05165039 137.79443359 223.3269043 C138.61282715 223.62999512 138.61282715 223.62999512 139.44775391 223.93920898 C139.47459378 226.91843492 139.49451428 229.89742193 139.51025391 232.87670898 C139.51863281 233.7268457 139.52701172 234.57698242 139.53564453 235.45288086 C139.54047852 236.66621094 139.54047852 236.66621094 139.54541016 237.90405273 C139.55326538 239.02734985 139.55326538 239.02734985 139.5612793 240.17333984 C139.44775391 241.93920898 139.44775391 241.93920898 138.44775391 242.93920898 C128.92673119 243.218652 119.53635889 239.70230906 112.07275391 233.87670898 C106.00766743 228.12817191 101.73742809 219.35359347 101.28953552 210.98190308 C101.27399124 209.83069977 101.25844696 208.67949646 101.24243164 207.4934082 C101.22248642 206.18459686 101.2025412 204.87578552 101.18199158 203.52731323 C101.16499191 202.09950905 101.14811368 200.67170343 101.13134766 199.24389648 C101.11074698 197.77140765 101.08974975 196.29892432 101.06837463 194.82644653 C101.01321844 190.94727297 100.96382978 187.06804585 100.91552734 183.18878174 C100.87545943 180.04595459 100.83140093 176.90318966 100.78709316 173.76041985 C100.40864022 146.89479757 100.40864022 146.89479757 100.44775391 136.93920898 C83.82298372 144.79282599 67.34044798 152.91325295 50.90185547 161.14697266 C47.58783649 162.80685303 44.27200305 164.46307243 40.95565796 166.11829948 C38.3473122 167.42062973 35.73986249 168.72474476 33.13275146 170.02954483 C31.87046609 170.66119086 30.60797635 171.29242867 29.34527588 171.92324448 C23.68176001 174.75436084 18.02384592 177.58549712 12.47900391 180.64477539 C11.78254761 181.02886063 11.08609131 181.41294586 10.36853027 181.80867004 C8.66370899 182.76173277 6.97003641 183.734672 5.27783203 184.70996094 C1.95388647 186.15372093 0.03996494 186.41484672 -3.55224609 185.93920898 C-6.02121245 184.89437575 -8.23026824 183.82604759 -10.55615234 182.52905273 C-11.22353424 182.17026535 -11.89091614 181.81147797 -12.57852173 181.44181824 C-14.76342035 180.26445611 -16.93877096 179.0704692 -19.11474609 177.87670898 C-20.64104952 177.05150418 -22.16816014 176.22779077 -23.69604492 175.40551758 C-26.03425612 174.14713617 -28.37204891 172.88806279 -30.70750427 171.62457275 C-38.004608 167.67868515 -45.36237136 163.85726716 -52.73974609 160.06420898 C-53.9416808 159.44455272 -55.14350434 158.82468079 -56.34521484 158.20458984 C-58.65915527 157.01062349 -60.97327674 155.81700795 -63.28759766 154.6237793 C-76.5189127 147.79637324 -89.69383279 140.8747929 -102.80224609 133.81420898 C-113.67669999 127.96019908 -124.62480534 122.2607415 -135.61474609 116.62670898 C-136.36408417 116.24244751 -137.11342224 115.85818604 -137.88546753 115.46228027 C-140.80103808 113.96725412 -143.71669499 112.47239653 -146.63246155 110.97775269 C-152.38711472 108.02674675 -158.13431802 105.06204763 -163.86474609 102.06420898 C-164.58605713 101.68997803 -165.30736816 101.31574707 -166.05053711 100.93017578 C-170.06475273 98.82087809 -173.82160268 96.51884768 -177.55224609 93.93920898 C-174.72939789 90.87327419 -172.06925365 88.94046471 -168.36083984 87.05639648 C-167.34376953 86.53432617 -166.32669922 86.01225586 -165.27880859 85.47436523 C-164.19341797 84.92651367 -163.10802734 84.37866211 -161.98974609 83.81420898 C-159.70697433 82.64536709 -157.42442396 81.47609272 -155.14208984 80.30639648 C-154.01657715 79.73244141 -152.89106445 79.15848633 -151.73144531 78.56713867 C-147.4860598 76.39326134 -143.26720469 74.17133783 -139.05224609 71.93920898 C-131.73428546 68.07613738 -124.39613148 64.25274188 -117.05224609 60.43920898 C-108.90435103 56.20798041 -100.76639846 51.95916119 -92.6472168 47.6730957 C-88.45212262 45.46009343 -84.25069416 43.26013865 -80.04052734 41.07592773 C-70.65788276 36.20622211 -61.31171517 31.28974939 -52.05224609 26.18920898 C-41.49746802 20.37674454 -30.79762217 14.85792595 -20.07177734 9.36987305 C-19.42687851 9.03928894 -18.78197968 8.70870483 -18.11753845 8.36810303 C-16.36031735 7.46773594 -14.6019517 6.56960363 -12.84350586 5.67163086 C-11.12009964 4.76448076 -9.40008051 3.84261298 -7.75582886 2.79882812 C-3.188913 -0.07595555 -3.188913 -0.07595555 0 0 Z " fill="#8F5E4F" transform="translate(193.55224609375,28.060791015625)"/>
<path d="M0 0 C6.25596472 1.90748739 12.0048141 4.30166505 17.8203125 7.28125 C18.63384689 7.69152939 19.44738129 8.10180878 20.28556824 8.52452087 C22.01261295 9.39608788 23.73833318 10.27028378 25.46279907 11.14694214 C29.94402961 13.42451786 34.43542623 15.68188856 38.92578125 17.94140625 C39.80407089 18.38396255 40.68236053 18.82651886 41.58726501 19.28248596 C48.46096758 22.74178392 55.36447042 26.12948522 62.3125 29.4375 C63.16150879 29.84226563 64.01051758 30.24703125 64.88525391 30.6640625 C66.45441074 31.40756434 68.02716879 32.1435297 69.60400391 32.87060547 C71.36262091 33.69956025 73.10218368 34.56925552 74.82958984 35.46142578 C76.2655249 36.17854736 76.2655249 36.17854736 77.73046875 36.91015625 C78.59438232 37.35625244 79.4582959 37.80234863 80.34838867 38.26196289 C85.46570154 39.68629185 89.95246227 36.64552858 94.46484375 34.34765625 C96.01739868 33.56261719 96.01739868 33.56261719 97.60131836 32.76171875 C98.7022583 32.20097656 99.80319824 31.64023438 100.9375 31.0625 C103.29087266 29.87472758 105.64505451 28.68855723 108 27.50390625 C108.59260117 27.20574005 109.18520233 26.90757385 109.79576111 26.60037231 C116.22103946 23.37464035 122.70259899 20.27182356 129.19799805 17.19042969 C134.59077662 14.63184286 139.96888421 12.04590696 145.33203125 9.42578125 C147.19507339 8.5183721 149.0583356 7.61141638 150.92166138 6.70458984 C152.71851509 5.82786224 154.51248493 4.94523206 156.30639648 4.0625 C157.39637939 3.53269531 158.4863623 3.00289062 159.609375 2.45703125 C160.57842773 1.98241455 161.54748047 1.50779785 162.54589844 1.01879883 C165 0 165 0 168 0 C169.09734283 4.3840001 169.10739632 8.63084659 169.01953125 13.1171875 C168.9983448 14.28025925 168.9983448 14.28025925 168.97673035 15.46682739 C168.94371986 17.10246568 168.90738184 18.7380398 168.86791992 20.37353516 C168.81283812 22.8597383 168.78416691 25.34539892 168.75585938 27.83203125 C168.72038824 29.42712061 168.6833304 31.02217563 168.64453125 32.6171875 C168.64016556 33.35282928 168.63579987 34.08847107 168.63130188 34.84640503 C168.41597658 41.45339981 166.1278636 45.64478537 161.66015625 50.58984375 C160.80292969 51.36457031 159.94570313 52.13929688 159.0625 52.9375 C158.22847656 53.70964844 157.39445313 54.48179687 156.53515625 55.27734375 C145.03907015 64.56149349 131.12906612 70.65229676 117.98657227 77.17480469 C114.54251296 78.8849244 111.10400144 80.60583315 107.66601562 82.328125 C105.46646321 83.42511577 103.26660427 84.52149218 101.06640625 85.6171875 C100.04446671 86.12861298 99.02252716 86.64003845 97.96961975 87.16696167 C85.52049899 93.32962858 85.52049899 93.32962858 80.85913086 92.3190918 C79.75964111 91.88765869 78.66015137 91.45622559 77.52734375 91.01171875 C76.29870605 90.53524902 75.07006836 90.0587793 73.80419922 89.56787109 C72.53473702 89.04864699 71.26665076 88.52604544 70 88 C68.82066895 87.51225098 67.64133789 87.02450195 66.42626953 86.52197266 C62.79133893 84.98244321 59.1742977 83.40524049 55.5625 81.8125 C53.59678223 80.95010086 51.63061905 80.08872283 49.66442871 79.22740173 C48.34815877 78.65059573 47.03215736 78.07317654 45.71643066 77.49513245 C41.5664134 75.67462875 37.40132311 73.89470989 33.22265625 72.140625 C32.1874585 71.70258545 31.15226074 71.2645459 30.08569336 70.81323242 C28.17987469 70.00812736 26.27075167 69.21077728 24.35766602 68.4230957 C14.72845409 64.32419274 5.62492982 58.20988052 1.1875 48.375 C-0.88722494 42.47841334 -1.14801269 37.20414498 -1.1328125 31.015625 C-1.13376923 30.15942566 -1.13472595 29.30322632 -1.13571167 28.42108154 C-1.13639008 26.61909918 -1.13455949 24.81711434 -1.13037109 23.01513672 C-1.12499167 20.2457132 -1.13034099 17.47644992 -1.13671875 14.70703125 C-1.13605842 12.95572881 -1.13477821 11.20442646 -1.1328125 9.453125 C-1.13483673 8.62089417 -1.13686096 7.78866333 -1.13894653 6.93121338 C-1.11496818 1.11496818 -1.11496818 1.11496818 0 0 Z " fill="#8F5E4F" transform="translate(109,196)"/>
<path d="M0 0 C5.07283707 2.22837804 10.10990824 4.51933267 15.125 6.875 C30.41799493 14.63438768 30.41799493 14.63438768 47 17 C49.59141286 15.8624438 49.59141286 15.8624438 52 14 C53.63243766 13.30117305 55.28025854 12.6377794 56.9375 12 C60.74192923 10.51892948 64.37968738 8.89635423 68 7 C69.33333333 6.33333333 70.66666667 5.66666667 72 5 C72.680625 4.608125 73.36125 4.21625 74.0625 3.8125 C76 3 76 3 79 4 C73.52735466 6.9319327 68.03107614 9.81417465 62.51806641 12.66943359 C60.26895754 13.85788069 58.0610769 15.09664597 55.85546875 16.36328125 C54.61266779 17.03512956 53.36922055 17.70578433 52.125 18.375 C51.05507812 18.98085938 49.98515625 19.58671875 48.8828125 20.2109375 C38.04924383 22.41252791 25.02200601 14.15201693 15.1875 9.75 C13.70537458 9.09308073 12.22295415 8.43682664 10.74023438 7.78125 C7.15671995 6.19512313 3.57728005 4.60013492 0 3 C0 2.01 0 1.02 0 0 Z " fill="#845146" transform="translate(149,268)"/>
<path d="M0 0 C5.61138869 0.92765662 10.14802299 3.33547768 15.1875 5.875 C16.10208984 6.32230469 17.01667969 6.76960938 17.95898438 7.23046875 C18.83232422 7.66746094 19.70566406 8.10445312 20.60546875 8.5546875 C21.79885864 9.14999268 21.79885864 9.14999268 23.01635742 9.75732422 C25 11 25 11 27 14 C20.07319966 18.45843376 12.92316541 22.44143648 5.6875 26.375 C5.09606201 26.70290527 4.50462402 27.03081055 3.89526367 27.36865234 C2.16863612 28.32586378 0.43403222 29.26864316 -1.30078125 30.2109375 C-2.32341064 30.77087402 -3.34604004 31.33081055 -4.3996582 31.90771484 C-7 33 -7 33 -10 32 C-8.54462432 31.16151196 -7.08559627 30.32936066 -5.625 29.5 C-4.40683594 28.80390625 -4.40683594 28.80390625 -3.1640625 28.09375 C-1 27 -1 27 1 27 C1.33 26.34 1.66 25.68 2 25 C3.88538744 23.96188023 5.80910176 22.99271099 7.75 22.0625 C13.54830628 19.27045843 18.57852748 16.74898901 23 12 C22.443125 11.87625 21.88625 11.7525 21.3125 11.625 C15.97750864 10.18311044 11.42579563 7.63697253 6.6875 4.875 C6.04232422 4.50246094 5.39714844 4.12992187 4.73242188 3.74609375 C3.15324055 2.83367787 1.57638136 1.91724491 0 1 C0 0.67 0 0.34 0 0 Z " fill="#845449" transform="translate(343,108)"/>
<path d="M0 0 C0 0.66 0 1.32 0 2 C-7.76532175 5.94052409 -15.53596069 9.87029584 -23.31364918 13.78635502 C-26.92477248 15.60497686 -30.53393701 17.4272814 -34.13891602 19.25805664 C-37.61640271 21.02391485 -41.09864981 22.78002597 -44.58444786 24.52941704 C-45.91509765 25.19936988 -47.24397874 25.87284741 -48.57105446 26.54985237 C-50.426715 27.4957661 -52.28820587 28.42907797 -54.15161133 29.35961914 C-55.74045891 30.16237022 -55.74045891 30.16237022 -57.36140442 30.9813385 C-60 32 -60 32 -63 31 C-61 28 -61 28 -58.125 27.375 C-56.578125 27.189375 -56.578125 27.189375 -55 27 C-53.66262906 26.68325425 -52.32711192 26.35729936 -51 26 C-51 25.34 -51 24.68 -51 24 C-46.35855331 22.23945126 -41.72224516 20.53472968 -37 19 C-37 18.34 -37 17.68 -37 17 C-35.06305322 16.18618205 -33.12542289 15.37399084 -31.1875 14.5625 C-30.10855469 14.11003906 -29.02960938 13.65757812 -27.91796875 13.19140625 C-25.9704874 12.39624987 -23.99561057 11.66520352 -22 11 C-22 10.34 -22 9.68 -22 9 C-20.2097939 8.32942113 -18.41778511 7.6636531 -16.625 7 C-15.62726563 6.62875 -14.62953125 6.2575 -13.6015625 5.875 C-11 5 -11 5 -9 5 C-9 4.34 -9 3.68 -9 3 C-3.375 0 -3.375 0 0 0 Z " fill="#825345" transform="translate(273,173)"/>
<path d="M0 0 C1.30517578 0.67869141 1.30517578 0.67869141 2.63671875 1.37109375 C3.51972656 1.82613281 4.40273437 2.28117187 5.3125 2.75 C5.97636719 3.09933594 6.64023438 3.44867188 7.32421875 3.80859375 C7.32421875 4.46859375 7.32421875 5.12859375 7.32421875 5.80859375 C4.41461155 4.66238485 1.59088402 3.46122467 -1.23828125 2.12109375 C-4.37438087 0.67048023 -4.37438087 0.67048023 -6.67578125 0.87109375 C-9.79278649 2.33218996 -12.71853222 4.04561837 -15.67578125 5.80859375 C-15.67578125 6.46859375 -15.67578125 7.12859375 -15.67578125 7.80859375 C-16.94421875 7.99421875 -16.94421875 7.99421875 -18.23828125 8.18359375 C-21.82814923 8.83629702 -25.18403 9.76106838 -28.67578125 10.80859375 C-28.67578125 11.46859375 -28.67578125 12.12859375 -28.67578125 12.80859375 C-29.66578125 13.13859375 -30.65578125 13.46859375 -31.67578125 13.80859375 C-31.48535156 11.99926758 -31.48535156 11.99926758 -30.67578125 9.80859375 C-27.19546425 7.25934471 -23.26462349 5.45264998 -19.42578125 3.49609375 C-18.37519531 2.93341797 -17.32460937 2.37074219 -16.2421875 1.79101562 C-15.22511719 1.26443359 -14.20804688 0.73785156 -13.16015625 0.1953125 C-12.22913086 -0.28719971 -11.29810547 -0.76971191 -10.33886719 -1.2668457 C-6.30658788 -2.66675785 -3.79170061 -1.68827545 0 0 Z " fill="#85574C" transform="translate(198.67578125,30.19140625)"/>
<path d="M0 0 C3.88674672 0.60900561 6.9264733 1.79248576 10.421875 3.58203125 C11.96101562 4.36223633 11.96101562 4.36223633 13.53125 5.15820312 C14.5934375 5.70412109 15.655625 6.25003906 16.75 6.8125 C23.76149175 10.39164203 30.75922552 13.90485624 38 17 C38 17.66 38 18.32 38 19 C24.52694914 14.95808474 12.36192875 7.59107575 0 1 C0 0.67 0 0.34 0 0 Z " fill="#825145" transform="translate(129,206)"/>
<path d="M0 0 C3.50923461 0.57851303 6.29010697 1.48449296 9.43359375 3.13671875 C10.24763672 3.54857422 11.06167969 3.96042969 11.90039062 4.38476562 C13.59350226 5.25413088 15.28105997 6.13439758 16.96289062 7.02539062 C21.92407078 9.63356126 21.92407078 9.63356126 27.34765625 9.20703125 C28.22292969 8.80871094 29.09820312 8.41039062 30 8 C32.375 8.375 32.375 8.375 34 9 C31.10340163 10.96763879 28.437307 12.26761925 25 13 C20.62830911 12.06494389 16.92616231 10.09649443 13 8 C11.78138866 7.36431746 10.56263512 6.72890744 9.34375 6.09375 C6.2045555 4.43938944 3.09654386 2.73306567 0 1 C0 0.67 0 0.34 0 0 Z " fill="#815046" transform="translate(168,225)"/>
<path d="M0 0 C7.875 0.875 7.875 0.875 9 2 C9.0983721 3.33043625 9.13078592 4.66593344 9.1328125 6 C9.13474609 7.2065625 9.13474609 7.2065625 9.13671875 8.4375 C9.13285156 9.283125 9.12898438 10.12875 9.125 11 C9.12886719 11.845625 9.13273437 12.69125 9.13671875 13.5625 C9.13542969 14.366875 9.13414062 15.17125 9.1328125 16 C9.13168457 16.7425 9.13055664 17.485 9.12939453 18.25 C9 20 9 20 8 21 C6.30858344 20.91036938 4.62040398 20.75422324 2.9375 20.5625 C2.01839844 20.46066406 1.09929687 20.35882813 0.15234375 20.25390625 C-0.55792969 20.17011719 -1.26820313 20.08632813 -2 20 C-2 19.34 -2 18.68 -2 18 C0.64 18.33 3.28 18.66 6 19 C7.16306443 15.45049966 6.92365049 12.44176052 6.5625 8.75 C6.46066406 7.67234375 6.35882813 6.5946875 6.25390625 5.484375 C6.17011719 4.66453125 6.08632813 3.8446875 6 3 C4.02 2.34 2.04 1.68 0 1 C0 0.67 0 0.34 0 0 Z " fill="#815247" transform="translate(324,250)"/>
<path d="M0 0 C0.53625 0.144375 1.0725 0.28875 1.625 0.4375 C4.39915827 1.09453748 7.18525388 1.55219948 10 2 C10.33 2.99 10.66 3.98 11 5 C13.15288922 6.32374177 13.15288922 6.32374177 15.75 7.4375 C19.59989285 9.25764991 22.81020407 11.12918367 26 14 C22.21004025 13.40345974 19.29643674 12.29932513 15.91796875 10.49609375 C14.98662109 10.00302734 14.05527344 9.50996094 13.09570312 9.00195312 C12.13599609 8.48568359 11.17628906 7.96941406 10.1875 7.4375 C9.20845703 6.91736328 8.22941406 6.39722656 7.22070312 5.86132812 C4.8106934 4.57990832 2.40399781 3.29265289 0 2 C0 1.34 0 0.68 0 0 Z " fill="#815044" transform="translate(53,140)"/>
<path d="M0 0 C-1.22493466 3.67480397 -2.00892145 3.82485211 -5.3671875 5.515625 C-6.25277344 5.96164062 -7.13835937 6.40765625 -8.05078125 6.8671875 C-8.98277344 7.32351563 -9.91476563 7.77984375 -10.875 8.25 C-11.79925781 8.72179687 -12.72351563 9.19359375 -13.67578125 9.6796875 C-14.56394531 10.12054688 -15.45210937 10.56140625 -16.3671875 11.015625 C-17.18300293 11.42071289 -17.99881836 11.82580078 -18.83935547 12.24316406 C-21 13 -21 13 -24 12 C-21.75748687 10.50499124 -19.70952089 9.30163094 -17.3125 8.125 C-16.26449219 7.60679687 -16.26449219 7.60679687 -15.1953125 7.078125 C-13.73177083 6.359375 -12.26822917 5.640625 -10.8046875 4.921875 C-9.75667969 4.40367187 -9.75667969 4.40367187 -8.6875 3.875 C-7.73423828 3.40707031 -7.73423828 3.40707031 -6.76171875 2.9296875 C-1.21008403 0 -1.21008403 0 0 0 Z " fill="#805145" transform="translate(252,258)"/>
<path d="M0 0 C-19.14482625 9.67812075 -19.14482625 9.67812075 -25 12 C-25.66 11.67 -26.32 11.34 -27 11 C-22.44011977 8.16274119 -17.71491971 5.69461993 -12.9375 3.25 C-12.13505859 2.82589844 -11.33261719 2.40179688 -10.50585938 1.96484375 C-9.72919922 1.56910156 -8.95253906 1.17335937 -8.15234375 0.765625 C-7.45101318 0.40243164 -6.74968262 0.03923828 -6.02709961 -0.33496094 C-3.61667475 -1.12575912 -2.36069554 -0.82784947 0 0 Z " fill="#835145" transform="translate(253,209)"/>
<path d="M0 0 C0.33 0.66 0.66 1.32 1 2 C2.98 1.34 4.96 0.68 7 0 C7.33 0.66 7.66 1.32 8 2 C4.90352475 3.53687482 1.79674718 5.05165282 -1.3125 6.5625 C-2.19357422 7.00013672 -3.07464844 7.43777344 -3.98242188 7.88867188 C-4.82998047 8.29794922 -5.67753906 8.70722656 -6.55078125 9.12890625 C-7.33106689 9.51119385 -8.11135254 9.89348145 -8.9152832 10.28735352 C-11 11 -11 11 -14 10 C-11.06171403 7.49701566 -8.82097239 6.53069061 -5 6 C-5 5.34 -5 4.68 -5 4 C-4.360625 3.71125 -3.72125 3.4225 -3.0625 3.125 C-0.84793921 2.17176549 -0.84793921 2.17176549 0 0 Z " fill="#855549" transform="translate(288,162)"/>
<path d="M0 0 C4.85019046 1.0508746 8.15442394 1.79535329 12 5 C13.051875 5.515625 14.10375 6.03125 15.1875 6.5625 C18 8 18 8 19 10 C19.804375 10.144375 20.60875 10.28875 21.4375 10.4375 C24 11 24 11 26 14 C20.34389362 12.37074514 15.36266428 9.74232778 10.1875 7 C9.31673828 6.54882812 8.44597656 6.09765625 7.54882812 5.6328125 C6.72189453 5.19710937 5.89496094 4.76140625 5.04296875 4.3125 C4.29039795 3.91675781 3.53782715 3.52101562 2.76245117 3.11328125 C1 2 1 2 0 0 Z " fill="#845042" transform="translate(121,176)"/>
<path d="M0 0 C0.66 0 1.32 0 2 0 C2 0.66 2 1.32 2 2 C2.66 2.33 3.32 2.66 4 3 C4.33333333 5 4.66666667 7 5 9 C5.66 9.33 6.32 9.66 7 10 C8.08018452 11.3236458 9.11752925 12.6827031 10.125 14.0625 C10.66382813 14.79597656 11.20265625 15.52945312 11.7578125 16.28515625 C12.16773438 16.85105469 12.57765625 17.41695313 13 18 C9.43627031 17.44581309 8.07380336 16.37119172 5.9375 13.5 C2.91916018 9.28196562 1.31578515 4.9861332 0 0 Z " fill="#825244" transform="translate(296,244)"/>
<path d="M0 0 C0.639375 0.763125 1.27875 1.52625 1.9375 2.3125 C4.85937582 5.28460864 7.94711504 6.18405412 11.9140625 7.2265625 C14.27452643 8.1017907 15.35551559 9.12403391 17 11 C17.556875 11.556875 18.11375 12.11375 18.6875 12.6875 C19.120625 13.120625 19.55375 13.55375 20 14 C14.6462535 12.44347945 9.99849053 10.0182491 5.125 7.375 C4.34125 6.95476562 3.5575 6.53453125 2.75 6.1015625 C0.83107943 5.0718978 -1.08477603 4.03652433 -3 3 C-2.01 2.01 -1.02 1.02 0 0 Z " fill="#835045" transform="translate(150,188)"/>
<path d="M0 0 C3 1 3 1 4.5625 3.6875 C7.40925257 8.3345704 12.32949176 10.48648221 17 13 C14 14 14 14 11.9140625 12.9609375 C3.40809147 7.06772208 3.40809147 7.06772208 0 3 C0 2.01 0 1.02 0 0 Z " fill="#875548" transform="translate(114,248)"/>
<path d="M0 0 C0 0.66 0 1.32 0 2 C-1.86691174 3.01501998 -3.74395344 4.01142079 -5.625 5 C-6.66914063 5.556875 -7.71328125 6.11375 -8.7890625 6.6875 C-12.14146595 8.0578255 -14.41954936 8.2580505 -18 8 C-17.67 7.01 -17.34 6.02 -17 5 C-14.52260646 4.09162237 -12.66420516 4 -10 4 C-7.98244719 3.13509353 -7.98244719 3.13509353 -5.9375 2 C-2.20833333 0 -2.20833333 0 0 0 Z " fill="#845547" transform="translate(208,206)"/>
<path d="M0 0 C0.99 0.33 1.98 0.66 3 1 C2.67 8.92 2.34 16.84 2 25 C1.67 25 1.34 25 1 25 C0.93941406 24.22914063 0.87882812 23.45828125 0.81640625 22.6640625 C0.73261719 21.66117188 0.64882813 20.65828125 0.5625 19.625 C0.48128906 18.62726563 0.40007812 17.62953125 0.31640625 16.6015625 C0.15034374 14.02072387 0.15034374 14.02072387 -1 12 C-0.91219597 9.95501575 -0.75758462 7.91255052 -0.5625 5.875 C-0.46066406 4.77929688 -0.35882813 3.68359375 -0.25390625 2.5546875 C-0.17011719 1.71164063 -0.08632813 0.86859375 0 0 Z " fill="#855547" transform="translate(275,197)"/>
<path d="M0 0 C5.72606705 3.23647268 11.36905031 6.6010364 17 10 C14 11 14 11 10.42578125 9.34765625 C9.04907832 8.59612277 7.67814591 7.8339433 6.3125 7.0625 C5.2596582 6.48338867 5.2596582 6.48338867 4.18554688 5.89257812 C2.45204328 4.93738227 0.72534991 3.96984614 -1 3 C-0.67 2.01 -0.34 1.02 0 0 Z " fill="#825044" transform="translate(172,201)"/>
<path d="M0 0 C5.77378925 0.4811491 9.95859836 2.18467181 15 5 C15 5.66 15 6.32 15 7 C9.67330096 7.83229672 6.1223054 5.00300393 2 2 C1.34 1.34 0.68 0.68 0 0 Z " fill="#855849" transform="translate(113,199)"/>
<path d="M0 0 C-2.26645058 1.34130761 -4.53760097 2.67316234 -6.8125 4 C-7.77639648 4.57234375 -7.77639648 4.57234375 -8.75976562 5.15625 C-13.66015625 8 -13.66015625 8 -17 8 C-17 7.34 -17 6.68 -17 6 C-14.73495035 4.80015203 -12.46410112 3.61505231 -10.1875 2.4375 C-9.54490234 2.09525391 -8.90230469 1.75300781 -8.24023438 1.40039062 C-3.33984375 -1.11328125 -3.33984375 -1.11328125 0 0 Z " fill="#88574C" transform="translate(46,107)"/>
<path d="M0 0 C-1.96792836 1.96792836 -3.46756819 2.85283135 -5.9375 4.0625 C-6.62714844 4.40410156 -7.31679687 4.74570313 -8.02734375 5.09765625 C-10 6 -10 6 -13 7 C-13.66 7.66 -14.32 8.32 -15 9 C-15 7.68 -15 6.36 -15 5 C-13.44424022 4.15415002 -11.8800388 3.32381601 -10.3125 2.5 C-9.44238281 2.0359375 -8.57226562 1.571875 -7.67578125 1.09375 C-4.88211171 -0.04818792 -2.98370887 -0.21504208 0 0 Z " fill="#855649" transform="translate(225,222)"/>
<path d="M0 0 C0.66 0.33 1.32 0.66 2 1 C-7.57169263 7.14628994 -7.57169263 7.14628994 -12 9 C-12.99 8.67 -13.98 8.34 -15 8 C-3.51737791 1.54421469 -3.51737791 1.54421469 0 0 Z " fill="#7D4C41" transform="translate(368,121)"/>
<path d="M0 0 C3.71888239 0.50712033 6.73454239 1.11608215 10 3 C9.67 4.65 9.34 6.3 9 8 C8.34 8 7.68 8 7 8 C7 7.34 7 6.68 7 6 C5.36739286 4.62517293 3.69774938 3.29352333 2 2 C1.34 1.34 0.68 0.68 0 0 Z " fill="#905248" transform="translate(255,62)"/>
<path d="M0 0 C4.68520915 1.21815438 8.70543612 2.69559987 13 5 C12.67 5.66 12.34 6.32 12 7 C8.04 5.02 4.08 3.04 0 1 C0 0.67 0 0.34 0 0 Z " fill="#835246" transform="translate(134,263)"/>
<path d="M0 0 C0 0.66 0 1.32 0 2 C-1.62249941 2.83819158 -3.24808497 3.6704116 -4.875 4.5 C-6.23238281 5.19609375 -6.23238281 5.19609375 -7.6171875 5.90625 C-10 7 -10 7 -12 7 C-11.67 6.01 -11.34 5.02 -11 4 C-8.6875 2.9375 -8.6875 2.9375 -6 2 C-5.278125 1.62875 -4.55625 1.2575 -3.8125 0.875 C-2 0 -2 0 0 0 Z " fill="#875547" transform="translate(331,142)"/>
<path d="M0 0 C0.53625 0.144375 1.0725 0.28875 1.625 0.4375 C4.39915827 1.09453748 7.18525388 1.55219948 10 2 C9.67 3.32 9.34 4.64 9 6 C4.545 4.02 4.545 4.02 0 2 C0 1.34 0 0.68 0 0 Z " fill="#86564A" transform="translate(53,140)"/>
<path d="M0 0 C0.61875 0.86625 0.61875 0.86625 1.25 1.75 C3.01957355 4.02516599 4.92852378 5.99995399 7 8 C6.67 8.99 6.34 9.98 6 11 C0 5 0 5 -0.0625 2.4375 C-0.041875 1.633125 -0.02125 0.82875 0 0 Z " fill="#865549" transform="translate(315,239)"/>
<path d="M0 0 C3.1875 1.8125 3.1875 1.8125 6 4 C6 4.66 6 5.32 6 6 C2.22454612 4.90931332 -0.47043472 4.0916909 -3 1 C-2.01 0.67 -1.02 0.34 0 0 Z " fill="#84594D" transform="translate(310,261)"/>
<path d="M0 0 C4.75 0.875 4.75 0.875 7 2 C7 2.66 7 3.32 7 4 C6.01 4.33 5.02 4.66 4 5 C2.64567325 3.68799596 1.31266518 2.35368596 0 1 C0 0.67 0 0.34 0 0 Z " fill="#87574B" transform="translate(320,96)"/>
</svg>
